<svg width="24" height="24" viewBox="0 0 24 24" fill="none" xmlns="http://www.w3.org/2000/svg">
<path fill-rule="evenodd" clip-rule="evenodd" d="M7 2H17C19.7614 2 22 4.23858 22 7V17C22 19.7614 19.7614 22 17 22H7C4.23858 22 2 19.7614 2 17V7C2 4.23858 4.23858 2 7 2ZM10.6615 9.29368C11.2216 9.00305 11.8591 8.89644 12.4833 8.989C13.12 9.08341 13.7094 9.38009 14.1645 9.83523C14.6197 10.2904 14.9164 10.8798 15.0108 11.5165C15.1033 12.1407 14.9967 12.7782 14.7061 13.3383C14.4155 13.8984 13.9556 14.3526 13.392 14.6363C12.8283 14.9199 12.1896 15.0187 11.5666 14.9184C10.9436 14.8182 10.3681 14.5241 9.9219 14.0779C9.47571 13.6317 9.18157 13.0562 9.08132 12.4332C8.98107 11.8102 9.07982 11.1714 9.36351 10.6078C9.64721 10.0441 10.1014 9.5843 10.6615 9.29368ZM12.7766 7.01063C11.7363 6.85637 10.6739 7.03406 9.74037 7.51843C8.80687 8.00281 8.04987 8.7692 7.57704 9.7086C7.10422 10.648 6.93964 11.7126 7.10672 12.7509C7.2738 13.7892 7.76403 14.7484 8.50768 15.4921C9.25134 16.2357 10.2105 16.726 11.2489 16.893C12.2872 17.0601 13.3518 16.8955 14.2912 16.4227C15.2306 15.9499 15.997 15.1929 16.4813 14.2594C16.9657 13.3259 17.1434 12.2634 16.9891 11.2231C16.8318 10.162 16.3373 9.17957 15.5788 8.42101C14.8202 7.66246 13.8378 7.16799 12.7766 7.01063Z" fill="white"/>
<path d="M17.5 6.5H17.51" stroke="#C81674" stroke-width="2" stroke-linecap="round" stroke-linejoin="round"/>
</svg>
