<svg width="230" height="230" viewBox="0 0 230 230" fill="none" xmlns="http://www.w3.org/2000/svg">
<g filter="url(#filter0_d)">
<circle cx="115" cy="115" r="75" fill="#760942"/>
</g>
<path d="M103.094 94.6411C103.094 94.7849 103.13 94.8929 103.202 95.0367C103.274 95.1447 103.382 95.2526 103.489 95.3245C103.705 95.5044 103.921 95.6123 104.173 95.7562C104.676 95.972 105.18 96.1518 105.684 96.2957C106.727 96.5835 107.806 96.7274 108.885 96.8353C109.964 96.9432 111.043 97.0152 112.123 97.0152C113.202 97.0511 114.281 97.0152 115.36 96.9792C116.439 96.9432 117.518 96.8713 118.561 96.7634C119.641 96.6554 120.684 96.5115 121.727 96.3317C122.77 96.1518 123.813 95.936 124.82 95.6483C125.324 95.5044 125.792 95.3245 126.223 95.1087C126.439 95.0008 126.619 94.8928 126.763 94.7849C126.835 94.713 126.871 94.677 126.907 94.6411V94.6051C126.907 94.6051 126.907 94.6051 126.907 94.6411V94.677C126.907 94.677 126.907 94.677 126.907 94.6411C126.871 94.6051 126.835 94.5691 126.763 94.4972C126.619 94.3893 126.439 94.2813 126.223 94.1734C125.792 93.9576 125.324 93.8137 124.82 93.6339C123.813 93.3461 122.77 93.1303 121.727 92.9504C120.684 92.7706 119.605 92.6267 118.561 92.5188C117.482 92.4108 116.439 92.3389 115.36 92.3029C114.281 92.267 113.202 92.231 112.123 92.2669C111.043 92.3029 109.964 92.3389 108.885 92.4468C107.806 92.5547 106.727 92.7346 105.684 92.9864C105.18 93.1303 104.641 93.2741 104.173 93.5259C103.921 93.6339 103.705 93.7777 103.489 93.9576C103.382 94.0295 103.274 94.1375 103.202 94.2454C103.13 94.3533 103.094 94.4972 103.094 94.6411ZM103.094 94.6411C103.094 94.4972 103.13 94.3893 103.202 94.2454C103.274 94.1375 103.382 94.0295 103.489 93.9576C103.705 93.7777 103.921 93.6339 104.173 93.5259C104.676 93.2741 105.18 93.0943 105.684 92.9504C106.727 92.6626 107.806 92.4468 108.849 92.2669C109.928 92.0871 111.007 91.9432 112.087 91.8353C113.166 91.7274 114.245 91.6554 115.324 91.6195C117.482 91.5116 119.676 91.5475 121.871 91.7634C122.41 91.8353 122.95 91.9072 123.525 91.9792C124.065 92.0871 124.605 92.195 125.18 92.3389C125.72 92.4828 126.259 92.6626 126.835 92.9144C127.123 93.0583 127.374 93.2022 127.662 93.418C127.806 93.5259 127.95 93.6698 128.058 93.8497C128.13 93.9576 128.166 94.0655 128.238 94.1734C128.274 94.3173 128.31 94.4612 128.31 94.6051C128.31 94.749 128.274 94.8929 128.238 95.0367C128.202 95.1447 128.13 95.2885 128.058 95.3605C127.914 95.5403 127.806 95.6842 127.662 95.7921C127.374 96.008 127.123 96.1878 126.835 96.2957C126.295 96.5475 125.72 96.7274 125.18 96.8713C124.101 97.159 122.986 97.3389 121.907 97.4468C120.828 97.5547 119.712 97.6267 118.633 97.6626C117.554 97.6986 116.439 97.6626 115.36 97.6267C114.281 97.5907 113.202 97.5187 112.123 97.4108C111.043 97.3029 109.964 97.159 108.885 96.9792C107.806 96.7993 106.763 96.5835 105.72 96.2957C105.216 96.1518 104.676 95.972 104.209 95.7202C103.957 95.6123 103.741 95.4684 103.525 95.2885C103.417 95.2166 103.31 95.1087 103.238 95.0008C103.13 94.8929 103.094 94.749 103.094 94.6411Z" fill="white"/>
<path d="M128.957 116.116C128.993 116.188 128.993 116.224 128.993 116.296C128.993 117.771 123.058 118.958 115.504 118.958C107.95 118.958 101.835 117.771 101.835 116.296C101.835 116.224 101.835 116.152 101.835 116.116" stroke="white" stroke-width="1.5" stroke-miterlimit="10"/>
<path d="M128.957 116.116L127.59 94.4609L128.957 116.116Z" fill="white"/>
<path d="M128.957 116.116L127.59 94.4609" stroke="white" stroke-width="1.5" stroke-miterlimit="10"/>
<path d="M101.115 116.079L103.058 94.6406L102.482 116.187L101.115 116.079Z" fill="white"/>
<path d="M108.432 101.001C108.18 102.08 108.036 103.339 108 104.778L108.432 101.001Z" fill="white"/>
<path d="M108.432 101.001C108.18 102.08 108.036 103.339 108 104.778" stroke="white" stroke-miterlimit="10"/>
<path d="M108.85 99.1011L109.137 98.6334L109.281 98.4176C109.317 98.3457 109.389 98.2737 109.425 98.2018L109.749 97.7701L109.893 97.5543L110.073 97.3385L110.432 96.9428C110.54 96.8349 110.684 96.691 110.792 96.5831L110.972 96.4032L111.188 96.2234C111.332 96.1155 111.44 96.0076 111.583 95.8996C112.159 95.504 112.735 95.1442 113.382 94.8924C114.029 94.6406 114.677 94.4608 115.324 94.4248C114.677 94.5687 114.065 94.8565 113.526 95.2162C112.986 95.5759 112.483 95.9716 112.015 96.4392C111.907 96.5471 111.799 96.691 111.691 96.7989L111.547 96.9788L111.404 97.1586C111.296 97.3025 111.224 97.4104 111.116 97.5543L110.864 97.95L110.756 98.1658L110.648 98.3816L110.432 98.8133C110.396 98.8852 110.36 98.9572 110.324 99.0291L110.252 99.245L110.073 99.6766L108.85 99.1011Z" fill="white"/>
<path d="M110 110.001H106V105.491C106 104.668 106.895 104.001 108 104.001C109.105 104.001 110 104.668 110 105.491V110.001Z" fill="white"/>
<path d="M128.202 99.3531C128.13 99.389 128.058 99.425 128.022 99.425C127.95 99.461 127.914 99.461 127.842 99.497C127.734 99.5329 127.59 99.6049 127.482 99.6408C127.231 99.7487 127.015 99.8207 126.763 99.8926C126.295 100.037 125.792 100.216 125.288 100.324C124.317 100.576 123.31 100.792 122.338 100.936L121.979 101.008L121.619 101.044C121.367 101.08 121.115 101.116 120.864 101.116C120.36 101.152 119.856 101.188 119.353 101.188C118.346 101.224 117.338 101.152 116.367 101.08C117.374 101.044 118.346 101.008 119.317 100.864C119.82 100.792 120.288 100.72 120.756 100.612C121.007 100.576 121.223 100.504 121.475 100.468L121.835 100.396L122.195 100.288C123.13 100.037 124.065 99.7487 124.964 99.389C125.432 99.2092 125.864 99.0293 126.295 98.8135C126.511 98.7056 126.727 98.5977 126.943 98.4897C127.051 98.4538 127.159 98.3818 127.266 98.3099C127.302 98.2739 127.374 98.238 127.41 98.238C127.446 98.202 127.518 98.166 127.554 98.166L128.202 99.3531Z" fill="white" stroke="white" stroke-width="0.5857" stroke-miterlimit="10"/>
<path d="M128.202 101.511C128.13 101.547 128.058 101.583 128.022 101.583C127.95 101.619 127.914 101.619 127.842 101.655C127.734 101.691 127.59 101.763 127.482 101.799C127.231 101.907 127.015 101.979 126.763 102.051C126.295 102.195 125.792 102.375 125.288 102.482C124.317 102.734 123.31 102.95 122.338 103.094L121.979 103.166L121.619 103.202C121.367 103.238 121.115 103.274 120.864 103.274C120.36 103.31 119.856 103.346 119.353 103.346C118.346 103.382 117.338 103.31 116.367 103.238C117.374 103.202 118.346 103.166 119.317 103.022C119.82 102.95 120.288 102.878 120.756 102.77C121.007 102.734 121.223 102.662 121.475 102.626L121.835 102.554L122.195 102.447C123.13 102.195 124.065 101.907 124.964 101.547C125.432 101.367 125.864 101.188 126.295 100.972C126.511 100.864 126.727 100.756 126.943 100.648C127.051 100.612 127.159 100.54 127.266 100.468C127.302 100.432 127.374 100.396 127.41 100.396C127.446 100.36 127.518 100.324 127.554 100.324L128.202 101.511Z" fill="white" stroke="white" stroke-width="0.5857" stroke-miterlimit="10"/>
<path d="M128.346 103.633C128.274 103.669 128.202 103.705 128.166 103.705C128.094 103.741 128.058 103.741 127.986 103.777C127.878 103.813 127.734 103.885 127.626 103.921C127.375 104.029 127.123 104.101 126.907 104.173C126.403 104.317 125.936 104.497 125.432 104.605C124.425 104.856 123.454 105.072 122.446 105.216L122.087 105.288L121.691 105.324C121.439 105.36 121.187 105.396 120.936 105.396C120.432 105.432 119.928 105.468 119.425 105.468C118.418 105.504 117.411 105.432 116.403 105.36C117.411 105.324 118.418 105.288 119.389 105.144C119.893 105.072 120.36 105 120.864 104.892C121.116 104.856 121.331 104.784 121.583 104.748L121.943 104.677L122.303 104.569C123.274 104.317 124.209 104.029 125.108 103.669C125.576 103.489 126.008 103.31 126.475 103.094C126.691 102.986 126.907 102.878 127.123 102.77C127.231 102.734 127.339 102.662 127.446 102.59C127.482 102.554 127.554 102.518 127.59 102.518C127.626 102.482 127.698 102.446 127.734 102.446L128.346 103.633Z" fill="white" stroke="white" stroke-width="0.5857" stroke-miterlimit="10"/>
<path d="M128.561 105.792C128.489 105.828 128.417 105.864 128.381 105.864C128.309 105.9 128.274 105.9 128.202 105.936C128.094 105.972 127.95 106.044 127.842 106.08C127.59 106.188 127.338 106.26 127.086 106.332C126.583 106.476 126.079 106.656 125.576 106.764C124.568 107.015 123.525 107.231 122.518 107.375C122.374 107.411 122.266 107.411 122.122 107.411L121.727 107.447C121.475 107.483 121.223 107.519 120.971 107.519C120.468 107.555 119.928 107.591 119.425 107.591C118.381 107.627 117.374 107.555 116.331 107.483C117.338 107.447 118.381 107.411 119.389 107.267C119.892 107.195 120.396 107.123 120.899 107.015C121.151 106.979 121.403 106.907 121.655 106.872L122.015 106.8C122.122 106.764 122.266 106.728 122.374 106.692C123.345 106.44 124.317 106.152 125.252 105.792C125.72 105.613 126.187 105.433 126.655 105.217C126.871 105.109 127.122 105.001 127.338 104.893C127.446 104.821 127.554 104.785 127.662 104.713C127.698 104.677 127.77 104.641 127.806 104.641C127.842 104.605 127.914 104.569 127.95 104.569L128.561 105.792Z" fill="white" stroke="white" stroke-width="0.5857" stroke-miterlimit="10"/>
<path d="M128.561 107.951C128.489 107.987 128.417 108.022 128.381 108.022C128.309 108.058 128.274 108.058 128.202 108.094C128.094 108.13 127.95 108.202 127.842 108.238C127.59 108.346 127.338 108.418 127.086 108.49C126.583 108.634 126.079 108.814 125.576 108.922C124.568 109.174 123.525 109.389 122.518 109.533C122.374 109.569 122.266 109.569 122.122 109.569L121.727 109.605C121.475 109.641 121.223 109.677 120.971 109.677C120.468 109.713 119.928 109.749 119.425 109.749C118.381 109.785 117.374 109.713 116.331 109.641C117.338 109.605 118.381 109.569 119.389 109.425C119.892 109.353 120.396 109.281 120.899 109.174C121.151 109.138 121.403 109.066 121.655 109.03L122.015 108.958C122.122 108.922 122.266 108.886 122.374 108.85C123.345 108.598 124.317 108.31 125.252 107.951C125.72 107.771 126.187 107.591 126.655 107.375C126.871 107.267 127.122 107.159 127.338 107.051C127.446 106.979 127.554 106.943 127.662 106.871C127.698 106.835 127.77 106.799 127.806 106.799C127.842 106.764 127.914 106.728 127.95 106.728L128.561 107.951Z" fill="white" stroke="white" stroke-width="0.5857" stroke-miterlimit="10"/>
<path d="M128.849 110.072C128.777 110.108 128.705 110.144 128.633 110.144C128.561 110.18 128.489 110.18 128.453 110.216C128.309 110.252 128.202 110.324 128.058 110.36C127.806 110.468 127.554 110.54 127.302 110.612C126.799 110.756 126.295 110.936 125.756 111.044C124.712 111.295 123.669 111.511 122.626 111.655C122.482 111.655 122.374 111.691 122.23 111.691L121.835 111.727C121.583 111.763 121.295 111.799 121.043 111.799C120.504 111.835 120 111.871 119.461 111.871C118.417 111.907 117.374 111.835 116.331 111.727C117.374 111.691 118.417 111.655 119.461 111.511C119.964 111.439 120.504 111.367 121.007 111.26C121.259 111.224 121.511 111.152 121.763 111.116L122.158 111.044C122.302 111.008 122.41 110.972 122.518 110.936C123.525 110.684 124.497 110.396 125.468 110.037C125.935 109.857 126.439 109.677 126.907 109.461C127.122 109.353 127.374 109.245 127.59 109.137C127.698 109.065 127.806 109.029 127.914 108.957C127.986 108.921 128.022 108.885 128.094 108.885C128.166 108.885 128.202 108.813 128.238 108.813L128.849 110.072Z" fill="white" stroke="white" stroke-width="0.5857" stroke-miterlimit="10"/>
<path d="M128.993 112.231C128.921 112.267 128.849 112.303 128.777 112.303C128.705 112.339 128.633 112.339 128.597 112.375C128.453 112.411 128.345 112.482 128.202 112.518C127.95 112.626 127.698 112.698 127.41 112.77C126.907 112.914 126.367 113.094 125.863 113.202C124.82 113.454 123.777 113.67 122.698 113.813C122.554 113.813 122.446 113.849 122.302 113.849L121.907 113.885C121.655 113.921 121.367 113.957 121.115 113.957C120.576 113.993 120.036 114.029 119.532 114.029C118.453 114.065 117.41 113.993 116.331 113.885C117.374 113.849 118.453 113.813 119.497 113.67C120.036 113.598 120.54 113.526 121.043 113.418C121.295 113.382 121.547 113.31 121.799 113.274L122.194 113.202C122.338 113.166 122.446 113.13 122.59 113.094C123.597 112.842 124.604 112.554 125.576 112.195C126.079 112.015 126.547 111.835 127.015 111.619C127.266 111.511 127.482 111.403 127.698 111.295C127.806 111.223 127.914 111.188 128.058 111.116C128.13 111.08 128.166 111.044 128.238 111.044C128.273 111.008 128.345 110.972 128.381 110.972L128.993 112.231Z" fill="white" stroke="white" stroke-width="0.5857" stroke-miterlimit="10"/>
<path d="M129.029 114.389C128.957 114.425 128.885 114.461 128.813 114.461C128.741 114.497 128.669 114.497 128.633 114.533C128.489 114.569 128.381 114.641 128.237 114.677C127.986 114.785 127.734 114.857 127.446 114.928C126.942 115.072 126.403 115.252 125.863 115.36C124.82 115.612 123.741 115.828 122.698 115.972C122.554 115.972 122.446 116.008 122.302 116.008L121.906 116.044C121.655 116.08 121.367 116.115 121.115 116.115C120.575 116.151 120.036 116.187 119.496 116.187C118.417 116.223 117.374 116.151 116.295 116.044C117.374 116.008 118.417 115.972 119.46 115.828C120 115.756 120.504 115.684 121.007 115.576C121.259 115.54 121.511 115.468 121.763 115.432L122.158 115.36C122.302 115.324 122.41 115.288 122.554 115.252C123.561 115 124.568 114.713 125.54 114.353C126.043 114.173 126.511 113.993 126.978 113.777C127.23 113.669 127.446 113.562 127.698 113.454C127.806 113.382 127.914 113.346 128.058 113.274C128.129 113.238 128.165 113.202 128.237 113.202C128.273 113.166 128.345 113.13 128.381 113.13L129.029 114.389Z" fill="white" stroke="white" stroke-width="0.5857" stroke-miterlimit="10"/>
<path d="M110.468 99.7561C110.468 100.583 109.821 101.231 108.993 101.231C108.849 101.231 108.706 101.195 108.562 101.159C107.95 100.979 107.519 100.404 107.519 99.7561C107.519 98.9647 108.166 98.2812 108.993 98.2812C109.173 98.2812 109.353 98.3172 109.497 98.3532C110.073 98.605 110.468 99.1446 110.468 99.7561Z" fill="white"/>
<path d="M115.684 126.008C114.425 125.073 112.95 124.497 111.439 124.317C110.684 124.245 109.928 124.281 109.209 124.389C109.029 124.425 108.849 124.461 108.669 124.497C108.49 124.533 108.31 124.605 108.13 124.641C107.95 124.713 107.77 124.749 107.59 124.821C107.41 124.893 107.267 124.965 107.087 125.037C106.439 125.36 105.864 125.792 105.288 126.296L104.82 126.691C104.677 126.835 104.497 126.943 104.353 127.087C104.029 127.339 103.669 127.591 103.31 127.806L103.022 127.95C102.914 127.986 102.842 128.058 102.734 128.094C102.554 128.166 102.338 128.274 102.159 128.346L101.583 128.562C101.475 128.598 101.403 128.634 101.295 128.67L101.008 128.778C100.612 128.921 100.216 128.993 99.8205 129.101C99.4248 129.173 99.0291 129.245 98.6334 129.317L98.6694 127.95C99.4608 128.13 100.216 128.31 100.972 128.49L103.238 129.065C104.749 129.461 106.259 129.821 107.734 129.893C108.094 129.929 108.49 129.893 108.849 129.857C109.209 129.821 109.569 129.785 109.928 129.677C110.648 129.497 111.331 129.209 112.015 128.85C112.662 128.49 113.31 128.022 113.885 127.519C114.029 127.411 114.173 127.267 114.317 127.123C114.461 126.979 114.605 126.871 114.749 126.727C114.892 126.583 115.036 126.475 115.18 126.332C115.396 126.296 115.54 126.152 115.684 126.008ZM115.684 126.008C115.576 126.152 115.468 126.332 115.36 126.475C115.252 126.655 115.108 126.799 115 126.943C114.892 127.087 114.749 127.267 114.641 127.411C114.497 127.555 114.389 127.734 114.245 127.878C113.705 128.49 113.13 129.029 112.446 129.497C111.799 129.965 111.043 130.36 110.252 130.612C109.856 130.756 109.461 130.828 109.029 130.9C108.633 130.972 108.202 131.008 107.77 131.008C106.943 131.044 106.115 130.936 105.324 130.828C104.533 130.72 103.741 130.54 102.986 130.36C102.195 130.18 101.439 130.001 100.684 129.821C99.9284 129.641 99.173 129.461 98.4176 129.317L95.0723 128.598L98.4536 127.95C98.8133 127.878 99.209 127.806 99.5687 127.734C99.9284 127.627 100.288 127.555 100.648 127.447L100.9 127.375C100.972 127.339 101.079 127.339 101.151 127.303L101.655 127.123C101.835 127.051 101.979 126.979 102.159 126.907C102.338 126.835 102.482 126.727 102.662 126.655C102.986 126.475 103.274 126.296 103.597 126.08C103.741 125.972 103.885 125.864 104.065 125.756L104.533 125.396C104.677 125.288 104.856 125.145 105 125.037C105.072 124.965 105.18 124.929 105.252 124.857L105.504 124.677L105.648 124.605L105.792 124.533L106.079 124.389C106.259 124.281 106.475 124.209 106.655 124.101C106.835 124.029 107.051 123.957 107.267 123.886C107.482 123.814 107.662 123.778 107.878 123.706C108.274 123.598 108.705 123.526 109.101 123.49C109.928 123.418 110.756 123.454 111.547 123.634C112.338 123.814 113.13 124.101 113.813 124.497C114.497 124.929 115.144 125.396 115.684 126.008Z" fill="white" stroke="white" stroke-width="0.5857" stroke-miterlimit="10"/>
<path d="M115.72 125.972C116.259 125.396 116.907 124.893 117.59 124.497C118.274 124.101 119.065 123.814 119.856 123.634C120.648 123.454 121.511 123.418 122.302 123.49C122.698 123.526 123.13 123.598 123.525 123.706C123.741 123.742 123.921 123.814 124.137 123.886C124.353 123.957 124.533 124.029 124.749 124.101C124.928 124.209 125.144 124.281 125.324 124.389L125.612 124.533L125.756 124.605L125.9 124.677L126.151 124.857C126.223 124.929 126.331 124.965 126.403 125.037C126.583 125.145 126.727 125.288 126.871 125.396L127.338 125.756C127.482 125.864 127.626 125.972 127.806 126.08C128.094 126.296 128.418 126.475 128.741 126.655C128.921 126.727 129.065 126.835 129.245 126.907C129.425 126.979 129.569 127.051 129.749 127.123L130.252 127.303C130.324 127.339 130.432 127.375 130.504 127.375L130.756 127.447C131.115 127.555 131.475 127.627 131.835 127.734C132.195 127.806 132.59 127.878 132.95 127.95L136.331 128.598L132.986 129.317C132.231 129.497 131.475 129.641 130.72 129.821C129.964 130.001 129.209 130.18 128.418 130.36C127.626 130.54 126.871 130.684 126.079 130.828C125.288 130.936 124.461 131.008 123.633 131.008C123.202 131.008 122.806 130.972 122.374 130.9C121.979 130.828 121.547 130.756 121.151 130.612C120.36 130.36 119.605 129.965 118.957 129.497C118.31 129.029 117.698 128.454 117.159 127.878C117.015 127.734 116.907 127.591 116.763 127.411C116.619 127.267 116.511 127.087 116.403 126.943C116.295 126.799 116.151 126.619 116.043 126.475C115.936 126.296 115.828 126.116 115.72 125.972ZM115.72 125.972C115.864 126.116 116.008 126.26 116.151 126.403C116.295 126.547 116.439 126.655 116.583 126.799C116.727 126.943 116.871 127.087 117.015 127.195C117.159 127.339 117.302 127.447 117.446 127.591C118.058 128.094 118.669 128.562 119.317 128.921C119.964 129.281 120.684 129.569 121.403 129.749C121.763 129.857 122.123 129.893 122.482 129.929C122.842 129.965 123.238 129.965 123.597 129.965C125.072 129.893 126.583 129.533 128.094 129.137L130.36 128.562C131.115 128.382 131.907 128.202 132.662 128.022L132.698 129.389C132.302 129.317 131.907 129.245 131.511 129.173C131.115 129.065 130.72 128.993 130.324 128.85L130.036 128.742C129.928 128.706 129.856 128.67 129.749 128.634L129.173 128.418C128.993 128.346 128.777 128.238 128.597 128.166C128.49 128.13 128.418 128.058 128.31 128.022L128.022 127.878C127.662 127.662 127.302 127.411 126.979 127.159C126.799 127.051 126.655 126.907 126.511 126.763L126.043 126.368C125.468 125.864 124.892 125.432 124.245 125.109C124.065 125.037 123.921 124.965 123.741 124.893C123.561 124.821 123.382 124.749 123.202 124.713C123.022 124.677 122.842 124.605 122.662 124.569C122.482 124.533 122.302 124.497 122.123 124.461C121.403 124.317 120.648 124.317 119.892 124.389C118.454 124.461 116.979 125.037 115.72 125.972Z" fill="white" stroke="white" stroke-width="0.5857" stroke-miterlimit="10"/>
<path d="M125.108 150.9C101.978 150.9 83.237 133.562 83.237 112.159C83.237 90.7559 101.978 73.4178 125.108 73.4178C127.446 73.4178 129.748 73.5976 131.978 73.9573C126.618 71.4753 120.683 70.1084 114.388 70.1084C91.2586 70.1084 72.5176 88.8494 72.5176 111.979C72.5176 135.108 91.2586 153.849 114.388 153.849C120.072 153.849 125.503 152.698 130.467 150.648C128.705 150.756 126.906 150.9 125.108 150.9Z" stroke="white" stroke-miterlimit="10"/>
<path d="M101.223 71.5473C102.769 71.0077 104.388 70.576 106.007 70.2523C107.626 69.9285 109.28 69.7127 110.935 69.6048C112.59 69.4969 114.208 69.4969 115.863 69.4609C116.69 69.4969 117.518 69.4969 118.345 69.5329L119.568 69.6408C119.964 69.6768 120.395 69.7127 120.791 69.7487C124.064 70.1084 127.302 70.8638 130.395 71.9789C133.489 73.094 136.474 74.6048 139.208 76.4034C141.978 78.2019 144.496 80.3602 146.762 82.7343C147.913 83.9214 148.956 85.2163 149.964 86.5113C150.935 87.8422 151.87 89.2091 152.662 90.648C156.007 96.3674 157.913 102.842 158.273 109.461C158.633 116.044 157.482 122.734 154.856 128.777C153.525 131.799 151.87 134.677 149.892 137.339C147.913 139.965 145.611 142.375 143.093 144.497C138.021 148.706 131.978 151.799 125.539 153.238C122.338 153.993 119.028 154.353 115.719 154.353C114.1 154.353 112.446 154.281 110.791 154.173C109.136 154.065 107.518 153.849 105.899 153.454L106.151 152.411C109.28 153.058 112.518 153.166 115.755 153.166C118.956 153.166 122.158 152.806 125.287 152.087C131.546 150.648 137.41 147.698 142.338 143.598C144.784 141.547 147.014 139.209 148.956 136.619C150.863 134.029 152.482 131.259 153.777 128.31C156.331 122.411 157.482 115.936 157.086 109.533C156.726 103.13 154.856 96.7991 151.618 91.2595C150.827 89.8566 149.928 88.5257 148.992 87.2307C148.021 85.9717 147.014 84.7127 145.899 83.5616C143.705 81.2235 141.223 79.1372 138.561 77.4106C135.863 75.648 132.985 74.2091 130 73.094C126.978 72.0149 123.849 71.2955 120.647 70.8998C120.251 70.8278 119.856 70.8278 119.46 70.7919L118.273 70.6839C117.482 70.648 116.654 70.648 115.863 70.612C114.244 70.612 112.626 70.612 111.007 70.7199C109.388 70.8278 107.805 71.0437 106.259 71.3674C104.676 71.6911 103.165 72.1228 101.618 72.6264L101.223 71.5473Z" fill="white"/>
<path d="M122.914 150.828C122.986 150.864 122.95 150.468 122.986 150.324C122.986 150.252 123.058 150.252 123.058 150.252L123.166 150.216L123.562 150.108L124.353 149.857L125.9 149.317L127.41 148.742C127.914 148.526 128.418 148.31 128.921 148.094C130.9 147.231 132.842 146.188 134.677 145.037C138.346 142.734 141.655 139.821 144.425 136.475C147.195 133.13 149.389 129.317 150.9 125.252C152.41 121.188 153.238 116.871 153.31 112.519C153.382 108.166 152.734 103.814 151.367 99.7128C150 95.6121 147.914 91.7272 145.288 88.274C142.662 84.8207 139.461 81.8351 135.9 79.3531C134.137 78.1301 132.231 77.015 130.288 76.0797L128.813 75.3963L127.303 74.7848L125.792 74.2092L125 73.9574C124.857 73.9215 124.749 73.8855 124.641 73.7776C124.533 73.6697 124.461 73.4898 124.425 73.1301C124.641 72.8423 124.821 72.7704 124.964 72.7344C125.108 72.6984 125.252 72.7704 125.36 72.8064L126.151 73.0582L127.734 73.6337L129.281 74.2452L130.828 74.9286C132.842 75.8639 134.821 76.979 136.655 78.238C140.36 80.756 143.633 83.8855 146.331 87.4826C151.763 94.6409 154.677 103.598 154.461 112.555C154.389 117.015 153.526 121.475 151.979 125.684C150.432 129.893 148.13 133.814 145.288 137.267C142.446 140.72 139.065 143.706 135.324 146.152C133.454 147.375 131.439 148.382 129.389 149.281C128.885 149.497 128.346 149.713 127.842 149.893C127.303 150.073 126.799 150.288 126.259 150.432L124.641 150.9L123.813 151.116L123.418 151.224L123.31 151.26C123.274 151.26 123.238 151.296 123.202 151.26C123.13 151.116 122.95 150.756 122.914 150.828Z" fill="white"/>
<path d="M117.518 73.6698C117.554 73.7418 117.733 73.3821 117.841 73.2742C117.877 73.2022 117.913 73.2742 117.949 73.2742L118.057 73.3101L118.453 73.4181L119.28 73.6339L120.899 74.1015C121.438 74.2814 121.942 74.4612 122.482 74.6411C123.021 74.8209 123.525 75.0368 124.028 75.2526C126.079 76.1159 128.093 77.159 129.964 78.3461C133.741 80.7562 137.158 83.7418 140 87.159C142.841 90.6123 145.143 94.5332 146.69 98.7418C148.237 102.95 149.064 107.411 149.064 111.907C149.1 116.404 148.309 120.864 146.798 125.109C145.287 129.317 143.021 133.274 140.215 136.763C137.374 140.253 134.028 143.274 130.251 145.72C128.381 146.943 126.402 147.986 124.352 148.886L122.805 149.533L121.223 150.109L119.64 150.648L118.849 150.9C118.705 150.936 118.597 151.008 118.417 150.972C118.273 150.936 118.093 150.828 117.877 150.576C117.913 150.217 118.021 150.037 118.129 149.929C118.237 149.821 118.381 149.821 118.525 149.785L119.316 149.533L120.863 148.994L122.374 148.382L123.884 147.735C125.863 146.835 127.769 145.756 129.568 144.569C133.201 142.195 136.474 139.281 139.208 135.9C141.942 132.555 144.172 128.742 145.683 124.677C147.194 120.612 147.949 116.26 147.949 111.943C147.949 107.591 147.158 103.274 145.647 99.1734C144.136 95.1087 141.942 91.2957 139.172 87.9504C136.402 84.6051 133.057 81.7274 129.388 79.4252C127.554 78.2742 125.611 77.267 123.633 76.4037C123.129 76.1878 122.625 75.972 122.122 75.7562L120.611 75.1806L119.064 74.6411L118.273 74.3893L117.877 74.2814L117.769 74.2454C117.733 74.2094 117.697 74.2454 117.697 74.1734C117.59 74.0296 117.625 73.6339 117.518 73.6698Z" fill="white"/>
<path d="M116.906 151.403C117.086 151.943 117.338 152.554 117.77 152.59C118.093 152.626 118.273 152.303 118.705 152.051C119.065 151.871 119.676 151.691 120.611 151.979" stroke="white" stroke-miterlimit="10"/>
<path d="M91.3672 83.9928C90.7198 83.3093 90.6118 82.446 90.9716 82.0143C91.3672 81.5467 92.2306 81.6906 92.7342 82.0503C93.7413 82.7338 93.9572 84.7122 93.0579 85.7913C92.0507 87.0143 89.7845 86.8345 88.5615 85.7194C87.1946 84.4604 87.4104 82.2661 88.2737 81.0072C89.1011 79.7841 90.5039 79.4964 91.3313 79.3165C92.6982 79.0287 93.8493 79.2086 95.2162 79.8201C96.3672 80.3237 96.9428 80.3597 97.878 80.3597" stroke="white" stroke-miterlimit="10" stroke-linecap="round"/>
<path d="M82.9501 89.497C83.5976 90.3963 84.5688 90.6841 85.1084 90.3244C85.7199 89.9647 85.7199 88.9215 85.4321 88.274C84.8566 86.9791 82.6623 86.3316 81.2235 87.1229C79.6048 88.0582 79.353 90.6841 80.3961 92.3028C81.5472 94.1373 84.1012 94.3172 85.6839 93.5978C87.2666 92.8783 88.022 91.5114 88.3817 90.6121C88.9933 89.1014 88.7774 87.5546 88.6335 85.792" stroke="white" stroke-miterlimit="10" stroke-linecap="round"/>
<path d="M82.015 93.6689C81.4035 93.8128 78.2021 93.633 76.4754 97.0143C76.1877 97.5538 76.1157 98.0934 76.1157 98.1294C75.792 100.072 77.015 101.583 77.2308 101.798C77.5906 102.266 78.4539 103.273 79.8927 103.417C81.0078 103.525 82.4107 103.129 83.1661 101.978C83.31 101.762 84.0654 100.647 83.5258 99.4603C83.238 98.8128 82.4826 98.0574 81.5114 98.1294C80.756 98.2013 80.1085 98.7409 79.8208 99.4963" stroke="white" stroke-miterlimit="10" stroke-linecap="round"/>
<path d="M79.2809 103.418C80.36 104.713 81.2593 106.727 81.619 107.519C82.0867 108.598 82.3025 110.181 81.8349 111.44C81.691 111.799 81.1154 113.13 79.6766 113.778C78.3097 114.389 77.0867 114.029 76.7629 113.922C76.3672 113.814 75.1442 113.418 74.4248 112.159C74.2449 111.871 73.5615 110.612 74.101 109.317C74.137 109.209 74.7485 107.914 76.0795 107.735C76.2953 107.699 77.3025 107.555 77.914 108.274C78.3816 108.814 78.4176 109.641 78.0579 110.396" stroke="white" stroke-miterlimit="10" stroke-linecap="round"/>
<path d="M78.7771 114.029C77.5901 114.785 75.8994 116.295 75.252 118.094C74.9282 118.957 74.6405 120.001 74.9642 121.224C75.0361 121.547 75.4678 122.95 76.8707 123.885C77.1584 124.065 78.7771 125.036 80.6117 124.353C80.8275 124.281 82.662 123.562 83.0937 121.691C83.1297 121.511 83.4174 120.072 82.4822 118.921C82.3023 118.706 81.6548 117.914 80.7196 117.986C79.8922 118.022 79.3887 118.67 79.2448 118.885C78.5613 119.713 78.6692 120.72 78.7052 120.936" stroke="white" stroke-miterlimit="10" stroke-linecap="round"/>
<path d="M79.7848 124.568C82.015 124.676 84.6409 126.223 85.2165 127.842C85.756 129.389 85.1805 130.791 85.1445 130.899C85.0726 131.079 84.3891 132.518 82.7704 133.13C81.4395 133.597 79.497 133.489 78.4899 132.23C77.9503 131.547 77.4467 130.216 78.0942 129.245C78.6337 128.417 79.6769 128.381 79.7488 128.345C80.9719 128.309 81.6913 129.353 81.7273 129.389" stroke="white" stroke-miterlimit="10" stroke-linecap="round"/>
<path d="M83.8491 132.519C83.6333 133.202 83.0938 135.108 83.0938 136.367C83.0938 137.591 83.0938 138.418 83.6333 139.245C84.4966 140.576 86.0434 140.792 86.2232 140.828C87.4463 141.008 88.993 140.612 89.8204 139.389C89.8923 139.281 90.9714 137.698 90.1441 136.188C90.0722 136.08 89.3527 134.785 88.1657 134.857C87.1945 134.893 86.2592 135.828 86.1153 137.123" stroke="white" stroke-miterlimit="10" stroke-linecap="round"/>
<path d="M88.8496 140.324C89.9287 140.108 92.3028 139.929 94.0654 140.684C94.8928 141.044 95.2885 141.403 95.5043 141.619C96.5115 142.698 96.5115 144.065 96.5115 144.245C96.5115 144.569 96.4755 146.152 95.2165 146.907C94.0654 147.626 92.2669 147.375 91.6194 146.296C91.2597 145.72 91.0439 144.677 91.6913 144.101C92.3028 143.526 93.2381 143.813 93.31 143.813" stroke="white" stroke-miterlimit="10" stroke-linecap="round"/>
<path d="M96.4753 144.245C96.4034 144.641 96.2595 147.519 97.1947 148.957C97.4465 149.353 98.3458 150.648 99.9645 151.044C100.504 151.188 101.691 151.439 102.662 150.72C103.777 149.893 103.67 148.418 103.67 148.202C103.634 147.77 103.562 146.583 102.626 146.188C101.835 145.828 100.72 146.152 100.324 147.015C99.9645 147.77 100.396 148.526 100.432 148.598" stroke="white" stroke-miterlimit="10" stroke-linecap="round"/>
<path d="M103.094 150.288C103.705 149.856 105.324 148.777 107.051 148.777C107.662 148.777 108.597 148.777 109.245 149.353C110.072 150.072 110.108 151.115 110.108 151.259C110.108 151.619 110.108 152.446 109.497 152.878C108.885 153.31 107.95 153.166 107.374 152.662C106.871 152.231 106.835 151.619 106.799 151.439" stroke="white" stroke-miterlimit="10" stroke-linecap="round"/>
<path d="M110 150.684C110.324 151.116 111.727 152.95 113.201 153.202C113.669 153.274 114.604 153.418 115.216 152.842C115.576 152.483 115.863 151.799 115.612 151.224C115.288 150.504 114.209 150.144 113.705 150.576C113.345 150.9 113.417 151.547 113.417 151.619" stroke="white" stroke-miterlimit="10" stroke-linecap="round"/>
<path d="M97.9138 77.4819C98.1296 76.6546 97.8059 75.8632 97.1944 75.5395C96.403 75.1078 95.4678 75.6834 95.0361 76.1869C94.3527 76.9783 94.4606 78.2013 94.8922 78.9567C95.5757 80.1798 97.2663 80.7193 98.6332 80.1798C99.8203 79.7121 100.827 77.7697 101.007 76.3308" stroke="white" stroke-miterlimit="10" stroke-linecap="round"/>
<path d="M103.705 74.9645C104.281 75.1084 104.748 75.4681 104.892 75.9357C105.072 76.6911 104.353 77.3746 103.777 77.6264C102.842 77.9861 101.727 77.4465 101.223 76.6552C100.576 75.6839 100.828 74.317 101.583 73.5976C102.374 72.8422 103.489 73.0221 104.029 73.094C105.756 73.3458 106.763 74.389 107.302 74.4969" stroke="white" stroke-miterlimit="10" stroke-linecap="round"/>
<path d="M112.086 71.6553C111.259 72.3387 110.648 72.9862 110.252 73.4538C109.712 74.0653 109.497 74.4251 108.993 74.6409C108.885 74.6769 107.914 75.0366 107.158 74.461C106.691 74.1013 106.223 73.3459 106.547 72.7704C106.763 72.3747 107.23 72.1589 107.734 72.1948" stroke="white" stroke-miterlimit="10" stroke-linecap="round"/>
<path d="M113.058 73.0219C113.094 72.806 113.166 72.3744 113.489 72.1586C113.669 72.0506 113.885 72.0147 114.712 72.2665C115.899 72.6262 115.935 72.914 116.439 72.878C116.978 72.878 117.554 72.5542 117.878 72.0866C118.022 71.9068 118.094 71.7269 118.13 71.583" stroke="white" stroke-miterlimit="10" stroke-linecap="round"/>
<path d="M119.964 72.447C120.222 72.447 120.431 72.2376 120.431 71.9794C120.431 71.7211 120.222 71.5117 119.964 71.5117C119.705 71.5117 119.496 71.7211 119.496 71.9794C119.496 72.2376 119.705 72.447 119.964 72.447Z" fill="white"/>
<path d="M108.885 72.9499C109.143 72.9499 109.352 72.7405 109.352 72.4823C109.352 72.224 109.143 72.0146 108.885 72.0146C108.626 72.0146 108.417 72.224 108.417 72.4823C108.417 72.7405 108.626 72.9499 108.885 72.9499Z" fill="white"/>
<path d="M102.266 76.403C102.525 76.403 102.734 76.1937 102.734 75.9354C102.734 75.6772 102.525 75.4678 102.266 75.4678C102.008 75.4678 101.799 75.6772 101.799 75.9354C101.799 76.1937 102.008 76.403 102.266 76.403Z" fill="white"/>
<path d="M98.7411 75.3239C98.9993 75.3239 99.2087 75.1146 99.2087 74.8563C99.2087 74.5981 98.9993 74.3887 98.7411 74.3887C98.4828 74.3887 98.2734 74.5981 98.2734 74.8563C98.2734 75.1146 98.4828 75.3239 98.7411 75.3239Z" fill="white"/>
<path d="M96.1874 78.2741C96.4456 78.2741 96.655 78.0648 96.655 77.8065C96.655 77.5482 96.4456 77.3389 96.1874 77.3389C95.9291 77.3389 95.7197 77.5482 95.7197 77.8065C95.7197 78.0648 95.9291 78.2741 96.1874 78.2741Z" fill="white"/>
<path d="M94.245 81.7995C94.5032 81.7995 94.7126 81.5902 94.7126 81.3319C94.7126 81.0736 94.5032 80.8643 94.245 80.8643C93.9867 80.8643 93.7773 81.0736 93.7773 81.3319C93.7773 81.5902 93.9867 81.7995 94.245 81.7995Z" fill="white"/>
<path d="M89.3163 84.821C89.5745 84.821 89.7839 84.6116 89.7839 84.3534C89.7839 84.0951 89.5745 83.8857 89.3163 83.8857C89.058 83.8857 88.8486 84.0951 88.8486 84.3534C88.8486 84.6116 89.058 84.821 89.3163 84.821Z" fill="white"/>
<path d="M89.3163 82.1227C89.5745 82.1227 89.7839 81.9134 89.7839 81.6551C89.7839 81.3969 89.5745 81.1875 89.3163 81.1875C89.058 81.1875 88.8486 81.3969 88.8486 81.6551C88.8486 81.9134 89.058 82.1227 89.3163 82.1227Z" fill="white"/>
<path d="M91.619 80.9362C91.8773 80.9362 92.0866 80.7269 92.0866 80.4686C92.0866 80.2103 91.8773 80.001 91.619 80.001C91.3607 80.001 91.1514 80.2103 91.1514 80.4686C91.1514 80.7269 91.3607 80.9362 91.619 80.9362Z" fill="white"/>
<path d="M96.6551 82.6266C96.9134 82.6266 97.1228 82.4173 97.1228 82.159C97.1228 81.9008 96.9134 81.6914 96.6551 81.6914C96.3969 81.6914 96.1875 81.9008 96.1875 82.159C96.1875 82.4173 96.3969 82.6266 96.6551 82.6266Z" fill="white"/>
<path d="M99.5321 77.0866C99.7903 77.0866 99.9997 76.8773 99.9997 76.619C99.9997 76.3607 99.7903 76.1514 99.5321 76.1514C99.2738 76.1514 99.0645 76.3607 99.0645 76.619C99.0645 76.8773 99.2738 77.0866 99.5321 77.0866Z" fill="white"/>
<path d="M98.7411 78.8493C98.9993 78.8493 99.2087 78.6399 99.2087 78.3817C99.2087 78.1234 98.9993 77.9141 98.7411 77.9141C98.4828 77.9141 98.2734 78.1234 98.2734 78.3817C98.2734 78.6399 98.4828 78.8493 98.7411 78.8493Z" fill="white"/>
<path d="M97.3026 79.1374C97.5608 79.1374 97.7702 78.928 97.7702 78.6698C97.7702 78.4115 97.5608 78.2021 97.3026 78.2021C97.0443 78.2021 96.835 78.4115 96.835 78.6698C96.835 78.928 97.0443 79.1374 97.3026 79.1374Z" fill="white"/>
<path d="M95.3241 83.3815C95.5823 83.3815 95.7917 83.1722 95.7917 82.9139C95.7917 82.6556 95.5823 82.4463 95.3241 82.4463C95.0658 82.4463 94.8564 82.6556 94.8564 82.9139C94.8564 83.1722 95.0658 83.3815 95.3241 83.3815Z" fill="white"/>
<path d="M91.7264 85.612C91.9847 85.612 92.194 85.4026 92.194 85.1444C92.194 84.8861 91.9847 84.6768 91.7264 84.6768C91.4682 84.6768 91.2588 84.8861 91.2588 85.1444C91.2588 85.4026 91.4682 85.612 91.7264 85.612Z" fill="white"/>
<path d="M85.1795 85.3239C85.4378 85.3239 85.6472 85.1146 85.6472 84.8563C85.6472 84.598 85.4378 84.3887 85.1795 84.3887C84.9213 84.3887 84.7119 84.598 84.7119 84.8563C84.7119 85.1146 84.9213 85.3239 85.1795 85.3239Z" fill="white"/>
<path d="M86.4032 87.6267C86.6614 87.6267 86.8708 87.4173 86.8708 87.159C86.8708 86.9008 86.6614 86.6914 86.4032 86.6914C86.1449 86.6914 85.9355 86.9008 85.9355 87.159C85.9355 87.4173 86.1449 87.6267 86.4032 87.6267Z" fill="white"/>
<path d="M86.4393 89.9646C86.6976 89.9646 86.9069 89.7552 86.9069 89.4969C86.9069 89.2387 86.6976 89.0293 86.4393 89.0293C86.181 89.0293 85.9717 89.2387 85.9717 89.4969C85.9717 89.7552 86.181 89.9646 86.4393 89.9646Z" fill="white"/>
<path d="M85.1795 92.447C85.4378 92.447 85.6472 92.2376 85.6472 91.9793C85.6472 91.7211 85.4378 91.5117 85.1795 91.5117C84.9213 91.5117 84.7119 91.7211 84.7119 91.9793C84.7119 92.2376 84.9213 92.447 85.1795 92.447Z" fill="white"/>
<path d="M82.8778 92.0505C83.136 92.0505 83.3454 91.8411 83.3454 91.5829C83.3454 91.3246 83.136 91.1152 82.8778 91.1152C82.6195 91.1152 82.4102 91.3246 82.4102 91.5829C82.4102 91.8411 82.6195 92.0505 82.8778 92.0505Z" fill="white"/>
<path d="M81.8348 90.612C82.0931 90.612 82.3024 90.4027 82.3024 90.1444C82.3024 89.8861 82.0931 89.6768 81.8348 89.6768C81.5766 89.6768 81.3672 89.8861 81.3672 90.1444C81.3672 90.4027 81.5766 90.612 81.8348 90.612Z" fill="white"/>
<path d="M80.5038 96.0798C80.762 96.0798 80.9714 95.8704 80.9714 95.6122C80.9714 95.3539 80.762 95.1445 80.5038 95.1445C80.2455 95.1445 80.0361 95.3539 80.0361 95.6122C80.0361 95.8704 80.2455 96.0798 80.5038 96.0798Z" fill="white"/>
<path d="M83.5975 95.9352C83.8558 95.9352 84.0651 95.7259 84.0651 95.4676C84.0651 95.2094 83.8558 95 83.5975 95C83.3392 95 83.1299 95.2094 83.1299 95.4676C83.1299 95.7259 83.3392 95.9352 83.5975 95.9352Z" fill="white"/>
<path d="M84.1004 98.1296C84.3587 98.1296 84.5681 97.9202 84.5681 97.662C84.5681 97.4037 84.3587 97.1943 84.1004 97.1943C83.8422 97.1943 83.6328 97.4037 83.6328 97.662C83.6328 97.9202 83.8422 98.1296 84.1004 98.1296Z" fill="white"/>
<path d="M85.1795 96.7273C85.4378 96.7273 85.6472 96.5179 85.6472 96.2596C85.6472 96.0014 85.4378 95.792 85.1795 95.792C84.9213 95.792 84.7119 96.0014 84.7119 96.2596C84.7119 96.5179 84.9213 96.7273 85.1795 96.7273Z" fill="white"/>
<path d="M78.1297 97.6628C78.388 97.6628 78.5974 97.4534 78.5974 97.1952C78.5974 96.9369 78.388 96.7275 78.1297 96.7275C77.8715 96.7275 77.6621 96.9369 77.6621 97.1952C77.6621 97.4534 77.8715 97.6628 78.1297 97.6628Z" fill="white"/>
<path d="M77.8055 100.432C78.0638 100.432 78.2731 100.223 78.2731 99.9647C78.2731 99.7064 78.0638 99.4971 77.8055 99.4971C77.5473 99.4971 77.3379 99.7064 77.3379 99.9647C77.3379 100.223 77.5473 100.432 77.8055 100.432Z" fill="white"/>
<path d="M80.7557 100.864C81.014 100.864 81.2233 100.655 81.2233 100.396C81.2233 100.138 81.014 99.9287 80.7557 99.9287C80.4975 99.9287 80.2881 100.138 80.2881 100.396C80.2881 100.655 80.4975 100.864 80.7557 100.864Z" fill="white"/>
<path d="M75.2518 103.31C75.5101 103.31 75.7194 103.101 75.7194 102.843C75.7194 102.584 75.5101 102.375 75.2518 102.375C74.9935 102.375 74.7842 102.584 74.7842 102.843C74.7842 103.101 74.9935 103.31 75.2518 103.31Z" fill="white"/>
<path d="M76.4032 105.001C76.6614 105.001 76.8708 104.791 76.8708 104.533C76.8708 104.275 76.6614 104.065 76.4032 104.065C76.1449 104.065 75.9355 104.275 75.9355 104.533C75.9355 104.791 76.1449 105.001 76.4032 105.001Z" fill="white"/>
<path d="M74.8563 105.936C75.1146 105.936 75.3239 105.727 75.3239 105.469C75.3239 105.21 75.1146 105.001 74.8563 105.001C74.598 105.001 74.3887 105.21 74.3887 105.469C74.3887 105.727 74.598 105.936 74.8563 105.936Z" fill="white"/>
<path d="M78.4168 106.655C78.6751 106.655 78.8845 106.446 78.8845 106.187C78.8845 105.929 78.6751 105.72 78.4168 105.72C78.1586 105.72 77.9492 105.929 77.9492 106.187C77.9492 106.446 78.1586 106.655 78.4168 106.655Z" fill="white"/>
<path d="M79.2801 108.597C79.5384 108.597 79.7478 108.388 79.7478 108.13C79.7478 107.871 79.5384 107.662 79.2801 107.662C79.0219 107.662 78.8125 107.871 78.8125 108.13C78.8125 108.388 79.0219 108.597 79.2801 108.597Z" fill="white"/>
<path d="M79.2801 111.116C79.5384 111.116 79.7478 110.907 79.7478 110.648C79.7478 110.39 79.5384 110.181 79.2801 110.181C79.0219 110.181 78.8125 110.39 78.8125 110.648C78.8125 110.907 79.0219 111.116 79.2801 111.116Z" fill="white"/>
<path d="M77.4823 112.302C77.7405 112.302 77.9499 112.093 77.9499 111.835C77.9499 111.577 77.7405 111.367 77.4823 111.367C77.224 111.367 77.0146 111.577 77.0146 111.835C77.0146 112.093 77.224 112.302 77.4823 112.302Z" fill="white"/>
<path d="M75.6473 110.54C75.9056 110.54 76.1149 110.33 76.1149 110.072C76.1149 109.814 75.9056 109.604 75.6473 109.604C75.3891 109.604 75.1797 109.814 75.1797 110.072C75.1797 110.33 75.3891 110.54 75.6473 110.54Z" fill="white"/>
<path d="M77.9139 116.835C78.1722 116.835 78.3815 116.625 78.3815 116.367C78.3815 116.109 78.1722 115.899 77.9139 115.899C77.6556 115.899 77.4463 116.109 77.4463 116.367C77.4463 116.625 77.6556 116.835 77.9139 116.835Z" fill="white"/>
<path d="M79.7479 115.648C80.0062 115.648 80.2155 115.439 80.2155 115.181C80.2155 114.922 80.0062 114.713 79.7479 114.713C79.4896 114.713 79.2803 114.922 79.2803 115.181C79.2803 115.439 79.4896 115.648 79.7479 115.648Z" fill="white"/>
<path d="M82.0868 116.583C82.345 116.583 82.5544 116.373 82.5544 116.115C82.5544 115.857 82.345 115.647 82.0868 115.647C81.8285 115.647 81.6191 115.857 81.6191 116.115C81.6191 116.373 81.8285 116.583 82.0868 116.583Z" fill="white"/>
<path d="M82.0868 114.928C82.345 114.928 82.5544 114.719 82.5544 114.461C82.5544 114.203 82.345 113.993 82.0868 113.993C81.8285 113.993 81.6191 114.203 81.6191 114.461C81.6191 114.719 81.8285 114.928 82.0868 114.928Z" fill="white"/>
<path d="M80.5038 116.835C80.762 116.835 80.9714 116.625 80.9714 116.367C80.9714 116.109 80.762 115.899 80.5038 115.899C80.2455 115.899 80.0361 116.109 80.0361 116.367C80.0361 116.625 80.2455 116.835 80.5038 116.835Z" fill="white"/>
<path d="M76.2586 118.813C76.5169 118.813 76.7263 118.604 76.7263 118.346C76.7263 118.087 76.5169 117.878 76.2586 117.878C76.0004 117.878 75.791 118.087 75.791 118.346C75.791 118.604 76.0004 118.813 76.2586 118.813Z" fill="white"/>
<path d="M76.5467 121.439C76.805 121.439 77.0143 121.23 77.0143 120.972C77.0143 120.713 76.805 120.504 76.5467 120.504C76.2885 120.504 76.0791 120.713 76.0791 120.972C76.0791 121.23 76.2885 121.439 76.5467 121.439Z" fill="white"/>
<path d="M79.0292 122.698C79.2874 122.698 79.4968 122.489 79.4968 122.23C79.4968 121.972 79.2874 121.763 79.0292 121.763C78.7709 121.763 78.5615 121.972 78.5615 122.23C78.5615 122.489 78.7709 122.698 79.0292 122.698Z" fill="white"/>
<path d="M80.3954 120.468C80.6536 120.468 80.863 120.259 80.863 120.001C80.863 119.743 80.6536 119.533 80.3954 119.533C80.1371 119.533 79.9277 119.743 79.9277 120.001C79.9277 120.259 80.1371 120.468 80.3954 120.468Z" fill="white"/>
<path d="M76.8709 126.403C77.1292 126.403 77.3386 126.194 77.3386 125.935C77.3386 125.677 77.1292 125.468 76.8709 125.468C76.6127 125.468 76.4033 125.677 76.4033 125.935C76.4033 126.194 76.6127 126.403 76.8709 126.403Z" fill="white"/>
<path d="M78.8846 126.619C79.1429 126.619 79.3522 126.409 79.3522 126.151C79.3522 125.893 79.1429 125.684 78.8846 125.684C78.6264 125.684 78.417 125.893 78.417 126.151C78.417 126.409 78.6264 126.619 78.8846 126.619Z" fill="white"/>
<path d="M81.1512 127.518C81.4095 127.518 81.6188 127.309 81.6188 127.051C81.6188 126.792 81.4095 126.583 81.1512 126.583C80.893 126.583 80.6836 126.792 80.6836 127.051C80.6836 127.309 80.893 127.518 81.1512 127.518Z" fill="white"/>
<path d="M82.6981 128.849C82.9564 128.849 83.1657 128.64 83.1657 128.382C83.1657 128.123 82.9564 127.914 82.6981 127.914C82.4398 127.914 82.2305 128.123 82.2305 128.382C82.2305 128.64 82.4398 128.849 82.6981 128.849Z" fill="white"/>
<path d="M82.6981 130.864C82.9564 130.864 83.1657 130.655 83.1657 130.396C83.1657 130.138 82.9564 129.929 82.6981 129.929C82.4398 129.929 82.2305 130.138 82.2305 130.396C82.2305 130.655 82.4398 130.864 82.6981 130.864Z" fill="white"/>
<path d="M81.1512 131.548C81.4095 131.548 81.6188 131.338 81.6188 131.08C81.6188 130.822 81.4095 130.612 81.1512 130.612C80.893 130.612 80.6836 130.822 80.6836 131.08C80.6836 131.338 80.893 131.548 81.1512 131.548Z" fill="white"/>
<path d="M79.5682 130.648C79.8265 130.648 80.0358 130.439 80.0358 130.181C80.0358 129.922 79.8265 129.713 79.5682 129.713C79.31 129.713 79.1006 129.922 79.1006 130.181C79.1006 130.439 79.31 130.648 79.5682 130.648Z" fill="white"/>
<path d="M85.3954 133.345C85.6536 133.345 85.863 133.136 85.863 132.878C85.863 132.62 85.6536 132.41 85.3954 132.41C85.1371 132.41 84.9277 132.62 84.9277 132.878C84.9277 133.136 85.1371 133.345 85.3954 133.345Z" fill="white"/>
<path d="M86.4393 132.05C86.6976 132.05 86.9069 131.841 86.9069 131.583C86.9069 131.325 86.6976 131.115 86.4393 131.115C86.181 131.115 85.9717 131.325 85.9717 131.583C85.9717 131.841 86.181 132.05 86.4393 132.05Z" fill="white"/>
<path d="M87.662 133.166C87.9202 133.166 88.1296 132.956 88.1296 132.698C88.1296 132.44 87.9202 132.23 87.662 132.23C87.4037 132.23 87.1943 132.44 87.1943 132.698C87.1943 132.956 87.4037 133.166 87.662 133.166Z" fill="white"/>
<path d="M85.8993 134.425C86.1575 134.425 86.3669 134.215 86.3669 133.957C86.3669 133.699 86.1575 133.489 85.8993 133.489C85.641 133.489 85.4316 133.699 85.4316 133.957C85.4316 134.215 85.641 134.425 85.8993 134.425Z" fill="white"/>
<path d="M84.4959 134.928C84.7542 134.928 84.9636 134.719 84.9636 134.461C84.9636 134.203 84.7542 133.993 84.4959 133.993C84.2377 133.993 84.0283 134.203 84.0283 134.461C84.0283 134.719 84.2377 134.928 84.4959 134.928Z" fill="white"/>
<path d="M84.0643 137.159C84.3226 137.159 84.5319 136.95 84.5319 136.691C84.5319 136.433 84.3226 136.224 84.0643 136.224C83.806 136.224 83.5967 136.433 83.5967 136.691C83.5967 136.95 83.806 137.159 84.0643 137.159Z" fill="white"/>
<path d="M87.662 138.49C87.9202 138.49 88.1296 138.281 88.1296 138.022C88.1296 137.764 87.9202 137.555 87.662 137.555C87.4037 137.555 87.1943 137.764 87.1943 138.022C87.1943 138.281 87.4037 138.49 87.662 138.49Z" fill="white"/>
<path d="M85.3954 139.174C85.6536 139.174 85.863 138.964 85.863 138.706C85.863 138.448 85.6536 138.238 85.3954 138.238C85.1371 138.238 84.9277 138.448 84.9277 138.706C84.9277 138.964 85.1371 139.174 85.3954 139.174Z" fill="white"/>
<path d="M87.662 136.727C87.9202 136.727 88.1296 136.518 88.1296 136.26C88.1296 136.001 87.9202 135.792 87.662 135.792C87.4037 135.792 87.1943 136.001 87.1943 136.26C87.1943 136.518 87.4037 136.727 87.662 136.727Z" fill="white"/>
<path d="M88.7772 142.77C89.0355 142.77 89.2448 142.561 89.2448 142.303C89.2448 142.044 89.0355 141.835 88.7772 141.835C88.5189 141.835 88.3096 142.044 88.3096 142.303C88.3096 142.561 88.5189 142.77 88.7772 142.77Z" fill="white"/>
<path d="M91.0077 142.554C91.2659 142.554 91.4753 142.345 91.4753 142.087C91.4753 141.828 91.2659 141.619 91.0077 141.619C90.7494 141.619 90.54 141.828 90.54 142.087C90.54 142.345 90.7494 142.554 91.0077 142.554Z" fill="white"/>
<path d="M93.2733 142.554C93.5316 142.554 93.7409 142.345 93.7409 142.087C93.7409 141.828 93.5316 141.619 93.2733 141.619C93.015 141.619 92.8057 141.828 92.8057 142.087C92.8057 142.345 93.015 142.554 93.2733 142.554Z" fill="white"/>
<path d="M94.3885 143.885C94.6468 143.885 94.8562 143.676 94.8562 143.418C94.8562 143.16 94.6468 142.95 94.3885 142.95C94.1303 142.95 93.9209 143.16 93.9209 143.418C93.9209 143.676 94.1303 143.885 94.3885 143.885Z" fill="white"/>
<path d="M93.0213 145.684C93.2796 145.684 93.489 145.475 93.489 145.217C93.489 144.958 93.2796 144.749 93.0213 144.749C92.7631 144.749 92.5537 144.958 92.5537 145.217C92.5537 145.475 92.7631 145.684 93.0213 145.684Z" fill="white"/>
<path d="M97.9852 146.152C98.2435 146.152 98.4528 145.943 98.4528 145.684C98.4528 145.426 98.2435 145.217 97.9852 145.217C97.7269 145.217 97.5176 145.426 97.5176 145.684C97.5176 145.943 97.7269 146.152 97.9852 146.152Z" fill="white"/>
<path d="M99.1004 145.684C99.3587 145.684 99.5681 145.475 99.5681 145.217C99.5681 144.958 99.3587 144.749 99.1004 144.749C98.8422 144.749 98.6328 144.958 98.6328 145.217C98.6328 145.475 98.8422 145.684 99.1004 145.684Z" fill="white"/>
<path d="M97.9852 144.713C98.2435 144.713 98.4528 144.503 98.4528 144.245C98.4528 143.987 98.2435 143.777 97.9852 143.777C97.7269 143.777 97.5176 143.987 97.5176 144.245C97.5176 144.503 97.7269 144.713 97.9852 144.713Z" fill="white"/>
<path d="M91.9784 139.174C92.2366 139.174 92.446 138.964 92.446 138.706C92.446 138.448 92.2366 138.238 91.9784 138.238C91.7201 138.238 91.5107 138.448 91.5107 138.706C91.5107 138.964 91.7201 139.174 91.9784 139.174Z" fill="white"/>
<path d="M97.9852 147.914C98.2435 147.914 98.4528 147.704 98.4528 147.446C98.4528 147.188 98.2435 146.979 97.9852 146.979C97.7269 146.979 97.5176 147.188 97.5176 147.446C97.5176 147.704 97.7269 147.914 97.9852 147.914Z" fill="white"/>
<path d="M99.1004 149.713C99.3587 149.713 99.5681 149.503 99.5681 149.245C99.5681 148.987 99.3587 148.777 99.1004 148.777C98.8422 148.777 98.6328 148.987 98.6328 149.245C98.6328 149.503 98.8422 149.713 99.1004 149.713Z" fill="white"/>
<path d="M101.403 150.001C101.661 150.001 101.871 149.791 101.871 149.533C101.871 149.275 101.661 149.065 101.403 149.065C101.145 149.065 100.936 149.275 100.936 149.533C100.936 149.791 101.145 150.001 101.403 150.001Z" fill="white"/>
<path d="M101.331 147.914C101.589 147.914 101.799 147.704 101.799 147.446C101.799 147.188 101.589 146.979 101.331 146.979C101.073 146.979 100.863 147.188 100.863 147.446C100.863 147.704 101.073 147.914 101.331 147.914Z" fill="white"/>
<path d="M104.461 151.655C104.719 151.655 104.928 151.446 104.928 151.187C104.928 150.929 104.719 150.72 104.461 150.72C104.203 150.72 103.993 150.929 103.993 151.187C103.993 151.446 104.203 151.655 104.461 151.655Z" fill="white"/>
<path d="M106.043 150.828C106.301 150.828 106.51 150.618 106.51 150.36C106.51 150.102 106.301 149.893 106.043 149.893C105.785 149.893 105.575 150.102 105.575 150.36C105.575 150.618 105.785 150.828 106.043 150.828Z" fill="white"/>
<path d="M105.252 147.914C105.51 147.914 105.719 147.704 105.719 147.446C105.719 147.188 105.51 146.979 105.252 146.979C104.994 146.979 104.784 147.188 104.784 147.446C104.784 147.704 104.994 147.914 105.252 147.914Z" fill="white"/>
<path d="M107.842 151.296C108.1 151.296 108.309 151.086 108.309 150.828C108.309 150.57 108.1 150.36 107.842 150.36C107.583 150.36 107.374 150.57 107.374 150.828C107.374 151.086 107.583 151.296 107.842 151.296Z" fill="white"/>
<path d="M121.763 152.482C122.021 152.482 122.23 152.273 122.23 152.015C122.23 151.756 122.021 151.547 121.763 151.547C121.504 151.547 121.295 151.756 121.295 152.015C121.295 152.273 121.504 152.482 121.763 152.482Z" fill="white"/>
<path d="M111.799 151.008C112.057 151.008 112.266 150.798 112.266 150.54C112.266 150.282 112.057 150.072 111.799 150.072C111.54 150.072 111.331 150.282 111.331 150.54C111.331 150.798 111.54 151.008 111.799 151.008Z" fill="white"/>
<path d="M61.7987 123.526C57.1224 106.044 61.7627 86.7989 75.8275 73.1298C97.1584 52.3744 132.015 52.3385 153.741 73.1298C168.417 87.1586 173.345 107.015 168.417 124.82" stroke="white" stroke-miterlimit="10"/>
<path d="M159.604 122.518L160 121.188L168.885 123.49L168.525 124.821L159.604 122.518Z" fill="white"/>
<path d="M160.827 116.871L161.007 115.504L170.18 116.691L169.964 118.058L160.827 116.871Z" fill="white"/>
<path d="M170.523 111.158L170.527 109.791L161.319 109.764L161.315 111.131L170.523 111.158Z" fill="white"/>
<path d="M160.971 105.36L160.791 104.029L169.928 102.878L170.108 104.245L160.971 105.36Z" fill="white"/>
<path d="M159.856 99.7125L159.496 98.3816L168.417 96.1514L168.777 97.4463L159.856 99.7125Z" fill="white"/>
<path d="M158.022 94.2448L157.482 92.9498L166.044 89.6045L166.583 90.8994L158.022 94.2448Z" fill="white"/>
<path d="M155.467 89.0296L154.748 87.8426L162.77 83.4541L163.489 84.6411L155.467 89.0296Z" fill="white"/>
<path d="M152.23 84.1732L151.367 83.0941L158.741 77.7344L159.605 78.8495L152.23 84.1732Z" fill="white"/>
<path d="M148.345 79.7851L147.374 78.8139L153.957 72.5908L154.964 73.562L148.345 79.7851Z" fill="white"/>
<path d="M143.957 75.8993L142.842 75.072L148.525 68.0576L149.64 68.9209L143.957 75.8993Z" fill="white"/>
<path d="M139.029 72.6266L137.842 71.9072L142.554 64.2812L143.777 64.9647L139.029 72.6266Z" fill="white"/>
<path d="M133.741 69.9648L132.446 69.4252L136.079 61.2598L137.41 61.7993L133.741 69.9648Z" fill="white"/>
<path d="M128.13 67.9863L126.763 67.5906L129.281 59.0654L130.648 59.4251L128.13 67.9863Z" fill="white"/>
<path d="M122.302 66.7272L120.899 66.5114L122.266 57.7344L123.669 57.9142L122.302 66.7272Z" fill="white"/>
<path d="M116.367 66.1875H114.928L115.108 57.2666L116.51 57.3026L116.367 66.1875Z" fill="white"/>
<path d="M110.395 66.4397L108.956 66.5836L107.949 57.7347L109.352 57.5908L110.395 66.4397Z" fill="white"/>
<path d="M104.497 67.3743L103.13 67.734L100.899 59.065L102.302 58.7412L104.497 67.3743Z" fill="white"/>
<path d="M98.777 69.0654L97.4461 69.569L94.1367 61.2956L95.4317 60.792L98.777 69.0654Z" fill="white"/>
<path d="M93.3456 71.4757L92.0866 72.1232L87.6621 64.3174L88.9211 63.6699L93.3456 71.4757Z" fill="white"/>
<path d="M88.2732 74.5331L87.1221 75.3245L81.6904 68.1302L82.8415 67.3389L88.2732 74.5331Z" fill="white"/>
<path d="M83.669 78.1664L82.6259 79.1016L76.2949 72.6628L77.3021 71.7275L83.669 78.1664Z" fill="white"/>
<path d="M79.5683 82.3742L78.669 83.4174L71.5107 77.8418L72.41 76.7627L79.5683 82.3742Z" fill="white"/>
<path d="M76.0795 87.0513L75.3242 88.2023L67.4824 83.5261L68.2018 82.375L76.0795 87.0513Z" fill="white"/>
<path d="M73.2369 92.1232L72.6614 93.3462L64.2441 89.7131L64.8197 88.4541L73.2369 92.1232Z" fill="white"/>
<path d="M71.1147 97.4827L70.6831 98.8136L61.8701 96.2237L62.2658 94.9287L71.1147 97.4827Z" fill="white"/>
<path d="M69.7119 103.094L69.4601 104.461L60.3594 102.986L60.6112 101.655L69.7119 103.094Z" fill="white"/>
<path d="M69.0648 108.813L69.0288 110.18L59.7842 109.892L59.8561 108.525L69.0648 108.813Z" fill="white"/>
<path d="M69.2088 114.568L69.3527 115.935L60.144 116.799L60.0361 115.432L69.2088 114.568Z" fill="white"/>
<path d="M70.108 120.288L70.4318 121.619L61.439 123.597L61.1152 122.267L70.108 120.288Z" fill="white"/>
<path d="M77.3736 143.634C77.8772 144.029 78.5967 144.713 79.2441 145.468C80.1794 146.547 80.611 147.411 80.647 148.31C80.719 149.029 80.4312 149.713 79.7837 150.253C78.9923 150.936 77.8413 151.008 76.7621 150.396L76.7262 150.432C77.2298 151.404 77.3736 152.878 76.1506 153.958C75.4312 154.569 74.6398 154.749 73.8844 154.677C72.8413 154.533 71.7981 153.814 70.611 152.447C69.9636 151.691 69.5319 151.08 69.2441 150.684L77.3736 143.634ZM70.9708 151.044C71.1146 151.296 71.3664 151.619 71.6902 151.979C72.6614 153.094 73.9564 153.778 75.1434 152.77C76.2585 151.799 75.8988 150.432 74.8556 149.245L74.1003 148.346L70.9708 151.044ZM74.9276 147.627L75.7909 148.598C76.7621 149.749 77.9492 149.929 78.7405 149.245C79.7118 148.418 79.46 147.339 78.4887 146.224C78.0571 145.72 77.7693 145.468 77.5895 145.324L74.9276 147.627Z" fill="white"/>
<path d="M79.0639 155.792C77.8769 157.303 78.3445 158.705 79.4596 159.605C80.251 160.252 80.8625 160.504 81.438 160.684L80.9704 161.619C80.4308 161.475 79.6035 161.115 78.5963 160.324C76.6898 158.777 76.5819 156.619 78.0567 154.785C79.5315 152.95 81.8337 152.41 83.6323 153.885C85.6467 155.54 84.7474 157.698 83.8481 158.813C83.6682 159.029 83.4884 159.209 83.3805 159.281L79.0639 155.792ZM82.9848 157.698C83.5603 157.015 84.1359 155.684 82.8769 154.641C81.7258 153.705 80.3949 154.317 79.7114 155.036L82.9848 157.698Z" fill="white"/>
<path d="M87.9489 157.303L87.1576 162.159C87.0497 162.699 86.9058 163.31 86.7979 163.814H86.8338C87.1935 163.49 87.6252 163.058 88.0928 162.663L91.7619 159.497L93.0928 160.253L88.4166 163.994C86.1863 165.792 84.8914 166.62 83.5964 166.871C82.6612 167.051 81.9417 166.907 81.582 166.764L81.8698 165.54C82.2295 165.612 82.7691 165.684 83.3086 165.576C83.8122 165.505 84.4957 165.289 85.1432 164.821C85.2871 164.713 85.359 164.641 85.395 164.569C85.4309 164.497 85.4669 164.389 85.5029 164.21L86.5461 156.512L87.9489 157.303Z" fill="white"/>
<path d="M98.0927 159.317C98.956 159.425 99.9992 159.605 101.078 159.893C103.057 160.432 104.352 161.26 105.071 162.375C105.791 163.49 106.006 164.857 105.539 166.548C105.071 168.274 104.136 169.533 102.877 170.217C101.618 170.936 99.8193 171.008 97.733 170.432C96.7618 170.181 95.9344 169.893 95.251 169.605L98.0927 159.317ZM96.9416 168.958C97.2654 169.102 97.769 169.281 98.3085 169.425C101.258 170.217 103.309 169.066 104.1 166.224C104.783 163.742 103.812 161.799 100.862 160.972C100.143 160.792 99.6035 160.684 99.2078 160.684L96.9416 168.958Z" fill="white"/>
<path d="M114.784 168.994C114.604 171.871 112.482 172.987 110.539 172.879C108.381 172.735 106.834 171.08 107.014 168.598C107.194 165.972 109.029 164.569 111.223 164.713C113.525 164.857 114.964 166.62 114.784 168.994ZM108.489 168.634C108.381 170.325 109.28 171.692 110.683 171.8C112.05 171.907 113.201 170.684 113.309 168.922C113.417 167.591 112.842 165.864 111.115 165.756C109.424 165.648 108.561 167.159 108.489 168.634Z" fill="white"/>
<path d="M116.978 167.195C116.906 166.404 116.798 165.72 116.69 165.109L117.949 164.965L118.165 166.224H118.201C118.525 165.432 119.352 164.605 120.647 164.461C121.726 164.353 123.525 164.785 123.813 167.447L124.316 172.087L122.877 172.231L122.374 167.734C122.23 166.475 121.654 165.504 120.288 165.648C119.352 165.756 118.669 166.475 118.525 167.303C118.489 167.483 118.489 167.734 118.489 167.986L118.993 172.663L117.554 172.806L116.978 167.195Z" fill="white"/>
<path d="M131.222 158.418L133.92 167.483C134.136 168.13 134.352 168.886 134.568 169.389L133.309 169.749L132.841 168.454H132.805C132.625 169.425 131.906 170.324 130.647 170.72C128.812 171.26 126.906 170.181 126.258 167.878C125.503 165.396 126.618 163.382 128.489 162.842C129.64 162.483 130.611 162.806 131.151 163.31H131.187L129.856 158.85L131.222 158.418ZM131.798 165.396C131.762 165.217 131.654 165.001 131.546 164.857C131.079 164.065 130.107 163.562 129.064 163.886C127.625 164.317 127.158 165.792 127.661 167.483C128.129 168.994 129.244 170.037 130.755 169.569C131.69 169.281 132.374 168.418 132.302 167.339C132.302 167.123 132.266 166.943 132.194 166.727L131.798 165.396Z" fill="white"/>
<path d="M142.877 163.094C143.237 163.814 143.597 164.425 143.921 164.965L142.769 165.54L142.122 164.461H142.086C142.05 165.181 141.654 166.296 140.395 166.943C139.28 167.519 137.626 167.591 136.367 165.145L134.28 161.08L135.575 160.433L137.554 164.281C138.237 165.612 139.1 166.296 140.287 165.684C141.151 165.253 141.439 164.353 141.403 163.67C141.367 163.454 141.295 163.202 141.187 162.951L138.993 158.67L140.287 158.022L142.877 163.094Z" fill="white"/>
<path d="M143.597 158.706C143.057 157.951 142.59 157.339 142.122 156.764L143.165 156.044L144.1 157.267L144.136 157.231C143.813 156.152 144.136 155.109 144.928 154.569C145.072 154.461 145.18 154.425 145.288 154.354L146.079 155.433C145.935 155.505 145.827 155.577 145.647 155.684C144.82 156.26 144.676 157.303 145.144 158.31C145.216 158.49 145.324 158.706 145.467 158.886L147.877 162.267L146.726 163.095L143.597 158.706Z" fill="white"/>
<path d="M148.165 155.217C147.589 154.677 147.086 154.21 146.582 153.814L147.445 152.879L148.417 153.706L148.453 153.67C148.201 152.843 148.237 151.836 149.136 150.864C149.891 150.073 150.935 149.929 151.834 150.289L151.87 150.253C151.726 149.785 151.69 149.318 151.726 148.922C151.798 148.346 152.014 147.807 152.553 147.267C153.273 146.512 154.855 145.828 156.834 147.699L160.179 150.864L159.208 151.907L156.006 148.85C154.927 147.807 153.884 147.591 153.057 148.454C152.481 149.066 152.481 149.929 152.805 150.577C152.913 150.756 153.057 150.972 153.237 151.152L156.762 154.461L155.791 155.505L152.373 152.303C151.474 151.44 150.431 151.224 149.676 152.051C149.064 152.699 149.136 153.67 149.46 154.318C149.568 154.533 149.712 154.713 149.891 154.893L153.309 158.131L152.337 159.174L148.165 155.217Z" fill="white"/>
<path d="M164.46 143.742L163.561 143.346L163.525 143.382C163.812 144.065 163.848 145.109 163.273 146.08C162.445 147.483 161.079 147.591 160.107 147.015C158.489 146.044 158.453 144.065 160.035 141.403L159.892 141.332C159.352 141.008 158.237 140.576 157.41 141.979C157.014 142.627 156.834 143.382 156.834 144.065L155.863 143.885C155.827 143.094 156.079 142.159 156.618 141.296C157.877 139.209 159.568 139.533 160.899 140.324L163.417 141.799C163.992 142.159 164.604 142.447 165.107 142.626L164.46 143.742ZM160.935 141.871C160.107 143.202 159.424 144.893 160.719 145.684C161.51 146.152 162.194 145.828 162.589 145.216C163.129 144.317 162.913 143.418 162.445 142.878C162.338 142.77 162.23 142.662 162.086 142.591L160.935 141.871Z" fill="white"/>
<defs>
<filter id="filter0_d" x="0" y="0" width="230" height="230" filterUnits="userSpaceOnUse" color-interpolation-filters="sRGB">
<feFlood flood-opacity="0" result="BackgroundImageFix"/>
<feColorMatrix in="SourceAlpha" type="matrix" values="0 0 0 0 0 0 0 0 0 0 0 0 0 0 0 0 0 0 127 0"/>
<feOffset/>
<feGaussianBlur stdDeviation="20"/>
<feColorMatrix type="matrix" values="0 0 0 0 0 0 0 0 0 0 0 0 0 0 0 0 0 0 0.15 0"/>
<feBlend mode="normal" in2="BackgroundImageFix" result="effect1_dropShadow"/>
<feBlend mode="normal" in="SourceGraphic" in2="effect1_dropShadow" result="shape"/>
</filter>
</defs>
</svg>
