<svg width="377" height="291" viewBox="0 0 377 291" fill="none" xmlns="http://www.w3.org/2000/svg">
<path d="M371.4 63.734C358.1 22.734 316.4 -4.56602 270.7 0.633976C255.4 2.33398 240.7 7.73395 227.9 16.234C209.5 6.33395 188.4 2.63395 167.8 5.73395C147.2 8.83395 128.1 18.434 113.3 33.234C101.5 34.734 90.2002 38.334 79.7002 43.934L251.7 48.434L46.3002 73.934C41.0002 81.734 36.9002 90.234 34.2002 99.234L371.4 63.734Z" fill="#F2F2F2"/>
<path d="M376.1 117.434C376.1 105.934 373.9 94.6342 369.7 84.0342L11.1002 121.734C7.40016 128.434 4.6002 135.534 2.7002 142.934L113.8 159.534L0.200195 171.634C3.6002 219.434 44.6002 257.234 94.7002 257.234C119.9 257.234 142.8 247.634 159.8 232.034C176.8 247.934 199.9 257.734 225.4 257.734C263.2 257.734 295.8 236.234 311 205.134C341.5 195.434 365.1 171.134 373.2 140.734L232.8 118.934H376.3C376.1 118.334 376.1 117.934 376.1 117.434Z" fill="#F2F2F2"/>
<path opacity="0.1" d="M9.20001 266.734C14.3 266.734 18.4 266.134 18.4 265.434C18.4 264.734 14.3 264.134 9.20001 264.134C4.10001 264.134 0 264.734 0 265.434C0 266.134 4.10001 266.734 9.20001 266.734Z" fill="#EB5757"/>
<path opacity="0.1" d="M44.4001 270.334C49.5001 270.334 53.6002 269.734 53.6002 269.034C53.6002 268.334 49.5001 267.734 44.4001 267.734C39.3001 267.734 35.2002 268.334 35.2002 269.034C35.2002 269.734 39.3001 270.334 44.4001 270.334Z" fill="#EB5757"/>
<path opacity="0.1" d="M85.7996 265.534C90.8996 265.534 94.9996 264.934 94.9996 264.234C94.9996 263.534 90.8996 262.934 85.7996 262.934C80.6996 262.934 76.5996 263.534 76.5996 264.234C76.5996 264.934 80.7996 265.534 85.7996 265.534Z" fill="#EB5757"/>
<path opacity="0.1" d="M30.3003 280.134C33.9003 280.134 36.8003 279.734 36.8003 279.234C36.8003 278.734 33.9003 278.334 30.3003 278.334C26.7003 278.334 23.8003 278.734 23.8003 279.234C23.7003 279.734 26.7003 280.134 30.3003 280.134Z" fill="#EB5757"/>
<path opacity="0.1" d="M66.7998 279.234C70.3998 279.234 73.2998 278.834 73.2998 278.334C73.2998 277.834 70.3998 277.434 66.7998 277.434C63.1998 277.434 60.2998 277.834 60.2998 278.334C60.2998 278.834 63.1998 279.234 66.7998 279.234Z" fill="#EB5757"/>
<path d="M44.5997 268.734C44.5997 268.734 31.6997 226.434 46.5997 209.534C57.7997 196.834 70.3997 198.334 76.0997 199.934C77.5997 200.334 78.8997 201.034 80.0997 202.034C81.2997 203.034 82.1997 204.234 82.8997 205.634C84.8997 209.934 84.4997 216.834 70.4997 224.934C47.0997 238.534 45.5997 257.134 45.5997 257.134L44.5997 268.734Z" fill="#EB5757"/>
<path d="M74.0003 205.934C74.0003 205.934 36.0003 217.834 44.5003 268.734" stroke="#565987" stroke-miterlimit="10"/>
<path d="M51.9004 210.234C51.9004 210.234 57.1004 213.734 55.5004 219.034" stroke="#565987" stroke-miterlimit="10"/>
<path d="M70.1996 213.334C70.1996 213.334 66.9996 210.034 63.0996 211.834" stroke="#565987" stroke-miterlimit="10"/>
<path d="M55.1996 229.734C55.1996 229.734 49.5996 226.934 48.0996 230.434" stroke="#565987" stroke-miterlimit="10"/>
<path d="M41.2998 235.734C41.2998 235.734 45.4998 235.434 45.5998 237.434" stroke="#565987" stroke-miterlimit="10"/>
<path d="M44.0996 269.134C44.0996 269.134 59.1996 238.434 63.2996 239.134C65.2996 239.434 66.1996 241.434 66.5996 243.334C67.0996 245.834 66.7996 248.434 65.7996 250.834C63.5996 255.634 57.8996 265.034 44.0996 269.134Z" fill="#EB5757"/>
<path d="M63.1998 244.934C63.1998 244.934 47.3998 267.934 44.2998 268.934" stroke="#565987" stroke-miterlimit="10"/>
<path d="M64.6004 248.434H60.9004" stroke="#565987" stroke-miterlimit="10"/>
<path d="M60.2004 256.934L54.4004 257.234" stroke="#565987" stroke-miterlimit="10"/>
<path d="M56.7002 250.134L57.3002 253.134" stroke="#565987" stroke-miterlimit="10"/>
<path d="M50.5 259.334L50.6 262.034" stroke="#565987" stroke-miterlimit="10"/>
<path d="M44.5002 269.134C44.5002 269.134 29.4002 238.434 25.3002 239.134C23.3002 239.434 22.4002 241.434 22.0002 243.334C21.5002 245.834 21.8002 248.434 22.8002 250.834C24.9002 255.634 30.7002 265.034 44.5002 269.134Z" fill="#EB5757"/>
<path d="M25.4004 244.934C25.4004 244.934 41.2004 267.934 44.3004 268.934" stroke="#565987" stroke-miterlimit="10"/>
<path d="M23.9004 248.434H27.6004" stroke="#565987" stroke-miterlimit="10"/>
<path d="M28.2998 256.934L34.0998 257.234" stroke="#565987" stroke-miterlimit="10"/>
<path d="M31.8998 250.134L31.2998 253.134" stroke="#565987" stroke-miterlimit="10"/>
<path d="M38.0004 259.334L37.9004 262.034" stroke="#565987" stroke-miterlimit="10"/>
<path d="M70.4001 276.333C70.8001 276.033 71.1002 275.533 71.3002 275.033C71.4002 274.733 71.3002 274.533 71.2002 274.233C71.1002 274.033 70.9002 273.834 70.7002 273.634C70.1002 273.434 69.6001 273.833 69.1001 274.233C68.7001 274.633 68.1001 275.034 67.6001 274.934C67.9001 274.634 68.1002 274.334 68.2002 273.934C68.3002 273.534 68.3002 273.133 68.3002 272.733C68.3002 272.533 68.2001 272.433 68.1001 272.333C67.8001 272.033 67.2001 272.134 66.9001 272.434C65.7001 273.234 65.4001 274.833 65.4001 276.233C65.3001 275.733 65.3001 275.134 65.4001 274.634C65.4001 274.134 65.3002 273.533 64.8002 273.233C64.5002 273.033 64.2001 273.033 63.9001 273.033C63.4001 273.033 62.8001 273.034 62.4001 273.434C62.0001 273.934 62.1002 274.733 62.5002 275.233C62.9002 275.733 63.4002 276.134 64.0002 276.434C64.4002 276.734 64.8001 277.034 65.1001 277.434C65.1001 277.534 65.2002 277.534 65.2002 277.634H68.5002C69.1002 277.334 69.8001 276.833 70.4001 276.333Z" fill="#EB5757"/>
<path d="M12.9001 263.934C13.3001 263.634 13.6002 263.134 13.8002 262.634C13.9002 262.334 13.8002 262.134 13.7002 261.834C13.6002 261.634 13.4002 261.434 13.2002 261.234C12.6002 261.034 12.1001 261.434 11.6001 261.834C11.2001 262.234 10.6001 262.634 10.1001 262.534C10.4001 262.234 10.6002 261.934 10.7002 261.534C10.8002 261.134 10.8002 260.734 10.8002 260.334C10.8002 260.134 10.7001 260.034 10.6001 259.934C10.3001 259.634 9.70013 259.734 9.40013 260.034C8.20013 260.834 7.90013 262.434 7.90013 263.834C7.80013 263.334 7.80013 262.734 7.90013 262.234C7.90013 261.734 7.80016 261.134 7.30016 260.834C7.00016 260.634 6.70013 260.634 6.40013 260.634C5.90013 260.634 5.30013 260.634 4.90013 261.034C4.50013 261.534 4.60017 262.334 5.00017 262.834C5.40017 263.334 5.90017 263.734 6.50017 264.034C6.90017 264.334 7.30014 264.634 7.60014 265.034C7.60014 265.134 7.70018 265.134 7.70018 265.234H11.0002C11.6002 264.934 12.3001 264.434 12.9001 263.934Z" fill="#EB5757"/>
<path d="M32.1003 276.333C32.5003 276.033 32.8004 275.533 33.0004 275.033C33.1004 274.733 33.0003 274.533 32.9003 274.233C32.8003 274.033 32.6003 273.834 32.4003 273.634C31.8003 273.434 31.3003 273.833 30.8003 274.233C30.4003 274.633 29.8003 275.034 29.3003 274.934C29.6003 274.634 29.8003 274.334 29.9003 273.934C30.0003 273.534 30.0004 273.133 30.0004 272.733C30.0004 272.533 29.9003 272.433 29.8003 272.333C29.5003 272.033 28.9003 272.134 28.6003 272.434C27.4003 273.234 27.1003 274.833 27.1003 276.233C27.0003 275.733 27.0003 275.134 27.1003 274.634C27.1003 274.134 27.0004 273.533 26.5004 273.233C26.2004 273.033 25.9003 273.033 25.6003 273.033C25.1003 273.033 24.5003 273.034 24.1003 273.434C23.7003 273.934 23.8004 274.733 24.2004 275.233C24.6004 275.733 25.1004 276.134 25.7004 276.434C26.1004 276.734 26.5003 277.034 26.8003 277.434C26.8003 277.534 26.9003 277.534 26.9003 277.634H30.2004C30.7004 277.334 31.4003 276.833 32.1003 276.333Z" fill="#EB5757"/>
<path d="M86.4002 251.234C86.4002 251.234 87.6002 252.834 85.8002 255.234C84.0002 257.634 82.5002 259.734 83.1002 261.234C83.1002 261.234 85.8002 256.734 88.0002 256.634C90.3002 256.634 88.9002 254.034 86.4002 251.234Z" fill="#EB5757"/>
<path opacity="0.1" d="M86.3996 251.234C86.4996 251.434 86.5996 251.534 86.6996 251.734C88.8996 254.234 89.9996 256.634 87.8996 256.734C85.9996 256.834 83.6996 260.234 83.0996 261.134C83.0996 261.234 83.0996 261.234 83.1996 261.334C83.1996 261.334 85.8996 256.834 88.0996 256.734C90.2996 256.634 88.8996 254.034 86.3996 251.234Z" fill="black"/>
<path d="M88.7 253.334C88.7 253.934 88.6 254.334 88.6 254.334C88.5 254.334 88.5 253.834 88.5 253.334C88.5 252.734 88.6 253.034 88.7 253.034C88.8 253.034 88.7 252.734 88.7 253.334Z" fill="#FFD037"/>
<path d="M89.5 254.034C89 254.334 88.6 254.434 88.5 254.434C88.5 254.334 88.8 254.034 89.3 253.834C89.8 253.634 89.6 253.734 89.6 253.834C89.8 253.834 90 253.734 89.5 254.034Z" fill="#FFD037"/>
<path d="M79.9001 251.234C79.9001 251.234 78.7001 252.834 80.5001 255.234C82.3001 257.634 83.8001 259.734 83.2001 261.234C83.2001 261.234 80.5001 256.734 78.3001 256.634C76.0001 256.634 77.5001 254.034 79.9001 251.234Z" fill="#EB5757"/>
<path opacity="0.1" d="M79.9001 251.234C79.8001 251.434 79.7001 251.534 79.7001 251.734C77.5001 254.234 76.4001 256.634 78.5001 256.734C80.4001 256.834 82.8001 260.234 83.3001 261.134C83.3001 261.234 83.3001 261.234 83.2001 261.334C83.2001 261.334 80.5001 256.834 78.3001 256.734C76.0001 256.634 77.5001 254.034 79.9001 251.234Z" fill="black"/>
<path d="M77.6001 253.334C77.6001 253.934 77.7001 254.334 77.7001 254.334C77.8001 254.334 77.8001 253.834 77.8001 253.334C77.8001 252.734 77.7001 253.034 77.6001 253.034C77.5001 253.034 77.6001 252.734 77.6001 253.334Z" fill="#FFD037"/>
<path d="M76.9002 254.034C77.4002 254.334 77.8002 254.434 77.9002 254.434C77.9002 254.334 77.6002 254.034 77.1002 253.834C76.6002 253.634 76.8002 253.734 76.7002 253.834C76.6002 253.834 76.4002 253.734 76.9002 254.034Z" fill="#FFD037"/>
<path d="M78 261.134C78 261.134 81.4 261.034 82.5 260.334C83.5 259.634 87.8 258.734 88.1 259.934C88.4 261.134 93.3 265.834 89.4 265.834C85.5 265.834 80.4 265.234 79.3 264.634C78.3 263.934 78 261.134 78 261.134Z" fill="#A8A8A8"/>
<path opacity="0.2" d="M89.4 265.334C85.5 265.334 80.4 264.734 79.3 264.134C78.5 263.634 78.2 261.934 78.1 261.134H78C78 261.134 78.2 263.934 79.3 264.534C80.3 265.134 85.5 265.834 89.4 265.734C90.5 265.734 90.9 265.334 90.9 264.734C90.7 265.134 90.3 265.334 89.4 265.334Z" fill="black"/>
<path opacity="0.1" d="M217.1 290.434C281.9 290.434 334.4 288.034 334.4 285.134C334.4 282.234 281.9 279.834 217.1 279.834C152.3 279.834 99.7998 282.234 99.7998 285.134C99.8998 288.034 152.4 290.434 217.1 290.434Z" fill="#EB5757"/>
<path d="M201 123.334C201 123.334 209.5 139.834 211.5 142.234C211.7 142.834 213.7 143.234 214.1 143.634C214.6 144.034 215.1 144.234 215.7 144.234C215.7 144.234 223.1 146.034 224.9 146.234C226.7 146.434 242.1 147.734 242.1 147.734C242.1 147.734 246 147.834 246.5 146.434C246.9 145.134 254.5 138.334 258.9 144.234C259.3 144.834 259.6 145.434 259.7 146.134C259.8 146.834 259.8 147.534 259.6 148.134C258.8 150.734 257.1 154.734 255.4 152.234C252.9 148.634 250 149.634 250 151.534C250 153.434 246 152.734 244.7 153.034C244 153.134 241.5 153.834 239.4 154.434C236.9 155.134 234.4 155.534 231.9 155.734C227.7 156.034 221.5 156.234 219.3 155.434C216.6 154.434 212 154.234 210 154.134C209.3 154.134 208.7 153.934 208.2 153.534C205.5 151.334 203.1 148.734 201.3 145.734C198.2 140.434 191.9 129.334 192.3 126.134C192.8 122.934 201 123.334 201 123.334Z" fill="#EFB7B9"/>
<path opacity="0.05" d="M201 123.334C201 123.334 207.8 139.034 211.5 142.234C211.7 142.834 213.7 143.234 214.1 143.634C214.6 144.034 215.1 144.234 215.7 144.234C215.7 144.234 223.1 146.034 224.9 146.234C226.7 146.434 242.1 147.734 242.1 147.734C242.1 147.734 246 147.834 246.5 146.434C246.9 145.134 254.5 138.334 258.9 144.234C259.3 144.834 259.6 145.434 259.7 146.134C259.8 146.834 259.8 147.534 259.6 148.134C258.8 150.734 257.1 154.734 255.4 152.234C252.9 148.634 250 149.634 250 151.534C250 153.434 246 152.734 244.7 153.034C244 153.134 241.5 153.834 239.4 154.434C236.9 155.134 234.4 155.534 231.9 155.734C227.7 156.034 221.5 156.234 219.3 155.434C216.6 154.434 212 154.234 210 154.134C209.3 154.134 208.7 153.934 208.2 153.534C205.5 151.334 203.1 148.734 201.3 145.734C198.2 140.434 191.9 129.334 192.3 126.134C192.8 122.934 201 123.334 201 123.334Z" fill="black"/>
<path d="M320.1 258.634C320.1 266.234 317.2 273.434 311.9 278.934C306.7 284.434 299.5 287.634 292 287.934C284.4 288.234 277.1 285.634 271.4 280.634C265.7 275.634 262.2 268.634 261.5 261.134C261.5 260.634 261.4 260.134 261.4 259.734C261.4 259.334 261.4 259.034 261.4 258.634C261.4 250.834 264.5 243.334 270 237.834C275.5 232.334 283 229.234 290.8 229.234C298.6 229.234 306.1 232.334 311.6 237.834C317 243.334 320.1 250.734 320.1 258.634Z" fill="#65617D"/>
<path d="M290.7 274.634C299.5 274.634 306.7 267.434 306.7 258.634C306.7 249.834 299.5 242.634 290.7 242.634C281.9 242.634 274.7 249.834 274.7 258.634C274.7 267.434 281.9 274.634 290.7 274.634Z" fill="#DCE0ED"/>
<path d="M290.7 268.234C296 268.234 300.3 263.934 300.3 258.634C300.3 253.334 296 249.034 290.7 249.034C285.4 249.034 281.1 253.334 281.1 258.634C281.1 263.934 285.4 268.234 290.7 268.234Z" fill="#65617D"/>
<path d="M213.6 202.834L142.9 204.234V193.834C143.5 185.434 152.2 182.534 160 181.534C166.1 180.834 172.3 181.334 178.3 182.934C193.3 186.934 202.9 187.634 207.6 187.734C208.6 187.734 209.6 188.134 210.4 188.834C211.2 189.534 211.7 190.434 211.9 191.434C212.1 192.634 212.3 193.934 212.6 195.234C212.8 196.234 212.9 197.234 213 198.134C213.3 200.734 213.6 202.834 213.6 202.834Z" fill="#65617D"/>
<path d="M270 260.434H123.1C122 260.434 120.9 260.134 119.9 259.534C118.9 258.934 118.2 258.034 117.7 257.034C116.6 254.434 118.1 252.734 119.8 251.734C123.2 249.734 125.7 246.634 127 242.834C128.6 238.234 130.1 230.934 130.7 219.634C131.3 207.934 135.6 202.134 140.1 199.334C146 195.734 152.5 197.034 152.5 197.034L212.1 197.534C213.2 198.034 214.1 198.634 215 199.434C220.3 204.334 212.6 210.834 212.6 210.834C196 228.434 208.6 246.234 208.6 246.234H239.1C244.8 246.234 250.4 244.534 255.1 241.334C259.2 238.534 260.8 235.734 261.4 234.034C261.9 232.734 262.3 231.534 262.9 230.234C270.9 212.934 261.3 184.634 257.1 174.134C256.1 171.534 255.4 169.934 255.4 169.934L265 169.234L271.1 168.734H271.2C284.5 191.734 289.5 215.334 291.1 232.834C291.3 234.434 291.4 236.034 291.5 237.634C291.7 240.534 291.3 243.434 290.3 246.234C289.3 249.034 287.8 251.534 285.8 253.634C283.8 255.734 281.4 257.434 278.7 258.634C275.8 259.834 272.9 260.434 270 260.434Z" fill="#EB5757"/>
<path opacity="0.1" d="M212.9 198.034H142.8V195.134H212.4C212.6 196.134 212.8 197.134 212.9 198.034Z" fill="black"/>
<path opacity="0.1" d="M215.1 199.534H140.8C140.6 199.534 140.4 199.534 140.2 199.434C146.1 195.834 152.6 197.134 152.6 197.134L212.2 197.634C213.2 198.034 214.2 198.734 215.1 199.534Z" fill="black"/>
<path d="M215.7 195.834H114.8C114 195.834 113.3 196.534 113.3 197.334C113.3 198.134 114 198.834 114.8 198.834H215.7C216.5 198.834 217.2 198.134 217.2 197.334C217.1 196.534 216.5 195.834 215.7 195.834Z" fill="#DCE0ED"/>
<path opacity="0.1" d="M290.9 232.934C287.5 236.634 285 238.034 285.1 234.134C285.5 222.434 264.8 169.234 264.8 169.234L270.9 168.734C284.3 191.834 289.3 215.434 290.9 232.934Z" fill="black"/>
<path opacity="0.1" d="M319.9 255.334C316.4 256.134 312.1 257.034 306.7 257.834C304.7 258.134 302.6 258.434 300.3 258.634C294.8 259.234 288.5 259.834 281.2 260.234C279.1 260.334 277 260.434 274.8 260.534C270.6 260.734 266.2 260.834 261.4 260.934L261.3 259.534C267.9 256.834 278.4 249.734 280.1 231.034C284.3 229.434 288.8 228.734 293.3 229.234C297.8 229.634 302.1 231.034 305.9 233.434C309.7 235.734 313 238.934 315.4 242.734C317.9 246.634 319.4 250.934 319.9 255.334Z" fill="black"/>
<path d="M255.8 260.434C255.8 260.434 289.5 256.734 277.9 205.434C277.9 205.434 294.6 220.734 304.9 229.234C315.2 237.734 333.7 249.434 333.7 249.434C333.7 249.434 322.7 259.734 255.8 260.434Z" fill="#7B7B7B"/>
<path d="M255.8 260.434C255.8 260.434 289.5 256.734 277.9 205.434C277.9 205.434 294.6 220.734 304.9 229.234C315.2 237.734 333.7 249.434 333.7 249.434C333.7 249.434 322.7 259.734 255.8 260.434Z" fill="#3F3D56"/>
<path d="M165.8 287.934C182 287.934 195.2 274.734 195.2 258.534C195.2 242.334 182.1 229.134 165.8 229.134C149.5 229.134 136.4 242.334 136.4 258.534C136.4 274.834 149.5 287.934 165.8 287.934Z" fill="#65617D"/>
<path d="M165.8 274.634C174.6 274.634 181.8 267.434 181.8 258.634C181.8 249.834 174.6 242.634 165.8 242.634C157 242.634 149.8 249.834 149.8 258.634C149.8 267.434 156.9 274.634 165.8 274.634Z" fill="#DCE0ED"/>
<path d="M165.8 268.234C171.1 268.234 175.4 263.934 175.4 258.634C175.4 253.334 171.1 249.034 165.8 249.034C160.5 249.034 156.2 253.334 156.2 258.634C156.2 263.934 160.5 268.234 165.8 268.234Z" fill="#65617D"/>
<path opacity="0.1" d="M198.7 249.734C198.7 230.734 183.6 215.434 165.1 215.434C146.6 215.434 131.5 230.834 131.5 249.734C131.5 250.534 131.5 251.334 131.6 252.134H198.7C198.7 251.334 198.7 250.534 198.7 249.734Z" fill="black"/>
<path d="M197.4 249.134C197.4 230.834 182.9 216.034 165 216.034C147.1 216.034 132.6 230.834 132.6 249.134C132.6 249.934 132.6 250.634 132.7 251.434H197.3C197.4 250.734 197.4 249.934 197.4 249.134Z" fill="#818181"/>
<path d="M197.4 249.134C197.4 249.634 197.4 250.234 197.4 250.734C197.4 250.934 197.4 251.234 197.4 251.434H132.8C132.8 251.234 132.8 250.934 132.8 250.734C132.8 250.234 132.8 249.634 132.8 249.134C132.8 230.834 147.3 216.034 165.2 216.034C183.1 216.034 197.4 230.934 197.4 249.134Z" fill="#3F3D56"/>
<path opacity="0.1" d="M197.4 250.734C197.4 250.934 197.4 251.234 197.4 251.434H132.8C132.8 251.234 132.8 250.934 132.8 250.734H197.4Z" fill="black"/>
<path opacity="0.1" d="M201.7 252.134H122.3C120.2 252.134 118.5 253.834 118.5 255.934C118.5 258.034 120.2 259.734 122.3 259.734H201.7C203.8 259.734 205.5 258.034 205.5 255.934C205.5 253.834 203.8 252.134 201.7 252.134Z" fill="black"/>
<path d="M201.7 251.434H122.3C120.2 251.434 118.5 253.134 118.5 255.234C118.5 257.334 120.2 259.034 122.3 259.034H201.7C203.8 259.034 205.5 257.334 205.5 255.234C205.5 253.134 203.8 251.434 201.7 251.434Z" fill="#DCE0ED"/>
<path opacity="0.1" d="M285.2 201.934C287.3 200.934 287.1 195.834 284.7 190.434C282.3 185.034 278.5 181.434 276.4 182.434C274.3 183.434 274.5 188.534 276.9 193.934C279.3 199.334 283 202.934 285.2 201.934Z" fill="black"/>
<path d="M285.5 201.534C287.6 200.534 287.4 195.434 285 190.034C282.6 184.634 278.8 181.034 276.7 182.034C274.6 183.034 274.8 188.134 277.2 193.534C279.6 198.934 283.4 202.534 285.5 201.534Z" fill="#DCE0ED"/>
<path opacity="0.1" d="M270.9 168.834V174.434H260C259 174.434 258 174.334 257 174.234C256 171.634 255.3 170.034 255.3 170.034L264.9 169.334L270.9 168.834Z" fill="black"/>
<path d="M270.9 173.734H260C250.5 173.734 242.7 166.634 242.7 157.834V156.334C242.7 147.534 250.4 140.434 260 140.434L270.9 141.434V173.734Z" fill="#978C90"/>
<path d="M253.1 149.834C253.1 149.834 259.6 153.334 255.9 159.134C255.9 159.134 251.3 166.634 244.1 165.934L241.5 149.734C241.4 149.834 250 149.034 253.1 149.834Z" fill="#EB5757"/>
<path opacity="0.1" d="M250.6 149.534C251.6 149.534 252.6 149.834 253.6 150.334C254.5 150.834 255.3 151.534 255.9 152.334C257.1 153.934 257.7 156.234 255.9 159.234C255.9 159.234 251.3 166.734 244.1 166.034L241.5 149.834C241.4 149.834 246.8 149.334 250.6 149.534Z" fill="black"/>
<path opacity="0.1" d="M270.6 141.334H272.7C274.5 141.334 276.1 142.034 277.4 143.234C278.6 144.434 279.3 146.134 279.3 147.934V167.034C279.3 168.834 278.6 170.434 277.4 171.734C276.2 172.934 274.5 173.634 272.7 173.634H270.6V141.334Z" fill="black"/>
<path d="M270.9 141.334H273C274.8 141.334 276.4 142.034 277.7 143.234C278.9 144.434 279.6 146.134 279.6 147.934V167.034C279.6 168.834 278.9 170.434 277.7 171.734C276.5 172.934 274.8 173.634 273 173.634H270.9V141.334Z" fill="#DCE0ED"/>
<path d="M193.9 182.934C193.9 182.934 195.6 183.534 197.8 184.434C201.4 185.834 206.4 187.834 208.1 188.934C209.8 190.034 216.3 191.834 221.2 193.134C224.8 194.034 228.5 194.534 232.3 194.534C236.1 194.534 240.7 194.434 241.9 194.434C242.1 194.434 242.3 194.434 242.6 194.434C243.9 194.634 243.9 195.534 243.8 195.734C236 200.434 226.5 221.734 225.9 225.334C225.5 228.034 221.5 235.434 219.6 238.934C219 240.134 218.5 240.834 218.5 240.834L220.9 243.534L227.8 246.634L234.3 249.434C234.3 249.434 241.2 249.834 241.3 249.434C241.4 249.034 241.4 245.434 241.4 245.434C240.6 244.934 239.8 244.334 239 243.634C237.4 242.234 236 240.734 234.6 239.134C230.8 234.634 238.4 225.934 238.4 225.934L253 206.934C253 206.934 254.2 204.834 259.9 196.234C265.6 187.734 259.9 183.034 259.9 183.034L249.9 178.834C232.5 172.334 211.5 167.134 211.5 167.134H211.2L206.8 166.534L193.9 182.934Z" fill="#1C1C28"/>
<path d="M238.2 246.434C238.2 246.434 238 246.734 237.1 246.934C236.1 246.934 235.1 246.334 235.1 246.334L220.1 239.634C220.1 239.634 218.4 238.434 218 240.834C217.6 243.234 217.3 242.934 217.3 242.934C217.3 242.934 215.3 247.334 217.3 248.234C219.3 249.134 231.6 252.734 231.6 252.734C231.6 252.734 249.4 256.834 251.1 252.134C252.8 247.434 248.1 248.234 248.1 248.234C248.1 248.234 242.2 246.834 240.2 243.934C240.3 244.034 239.1 245.334 238.2 246.434Z" fill="#23222D"/>
<path opacity="0.1" d="M260 183.134L250 178.934C232.6 172.434 211.6 167.234 211.6 167.234H211.3L206.9 166.634L193.9 182.834C193.9 182.834 195.6 183.434 197.8 184.334C201.4 185.734 206.4 187.734 208.1 188.834C209.8 189.934 216.3 191.734 221.2 193.034C224.8 193.934 228.5 194.434 232.3 194.434C236.1 194.434 240.7 194.334 241.9 194.334C242.1 194.334 242.3 194.334 242.6 194.334C243.9 194.534 243.9 195.434 243.8 195.634C236 200.334 226.5 221.634 225.9 225.234C225.5 227.934 221.5 235.334 219.6 238.834L219.3 239.334C218.8 239.234 218.1 239.434 217.9 240.734C217.5 243.134 217.2 242.834 217.2 242.834C217.2 242.834 215.2 247.234 217.2 248.134C219.2 249.034 231.5 252.634 231.5 252.634C231.5 252.634 249.3 256.734 251 252.034C252.7 247.334 248 248.134 248 248.134C248 248.134 242.1 246.734 240.1 243.834C239.9 243.934 239.7 243.934 239.6 244.034C239.4 243.834 239.2 243.634 238.9 243.434C237.3 242.034 235.9 240.534 234.5 238.934C230.7 234.434 238.3 225.734 238.3 225.734L252.9 206.734C252.9 206.734 254.1 204.634 259.8 196.034C265.7 187.834 260 183.134 260 183.134Z" fill="black"/>
<path d="M181.9 103.534L182.4 104.234L182.7 104.634L184.6 107.034C184.6 107.034 189.1 108.434 193.1 109.434C197.2 110.434 200.7 110.834 197.9 108.534C196.2 107.134 196.1 104.634 196.7 102.134C197.2 100.134 198 98.2338 199 96.4338C199.1 96.1338 199.3 95.9338 199.4 95.6338C200.3 94.0338 201.3 92.4338 202.3 90.9338C199.8 89.1338 197.1 87.5338 194.4 86.1338C191.1 84.4338 188.5 83.7337 190.2 87.0337C191.3 89.1337 190.9 91.5337 189.9 93.8337C189.8 94.0337 189.7 94.2337 189.6 94.3337C188.7 96.1337 187.6 97.7338 186.2 99.2338C185 100.734 183.5 102.134 181.9 103.534Z" fill="#EFB7B9"/>
<path d="M204.8 161.734L206.7 164.934L215 168.834L206.5 171.034L202.2 165.434L204.8 161.734Z" fill="#171721"/>
<path d="M188.1 186.934C188.1 186.934 188.4 187.034 189 187.234C189.7 187.534 190.8 187.934 192 188.334C195.6 189.734 200.6 191.734 202.3 192.834C204 193.934 210.5 195.734 215.4 197.034C219 197.934 222.7 198.434 226.5 198.434C230.3 198.434 234.9 198.334 236.1 198.334C236.3 198.334 236.5 198.334 236.8 198.434C238.1 198.634 238.1 199.534 238 199.734C230.2 204.434 220.7 225.734 220.1 229.334C219.7 232.034 215.7 239.434 213.8 242.934C213.2 244.134 212.7 244.834 212.7 244.834L215.1 247.534L222 250.634L228.5 253.434C228.5 253.434 235.4 253.834 235.5 253.434C235.6 253.034 235.6 249.434 235.6 249.434C234.8 248.934 234 248.334 233.2 247.634C231.6 246.234 230.2 244.734 228.8 243.134C225 238.634 232.6 229.934 232.6 229.934L247.2 210.934C247.2 210.934 248.4 208.834 254.1 200.234C259.8 191.734 254.1 187.034 254.1 187.034L245 181.834C230.8 173.134 210.7 168.234 210.7 168.234H210.4L206 167.634L188.1 186.934Z" fill="#2F2E41"/>
<path d="M171.7 166.534C171.7 166.534 169.7 181.734 188.1 186.934C206.5 192.134 206 167.734 206 167.734L204.1 165.734C204.1 165.734 173.6 163.334 171.7 166.534Z" fill="#2F2E41"/>
<path opacity="0.1" d="M212.8 244.834L215.2 247.534L222.1 250.634L228.6 253.434C228.6 253.434 235.5 253.834 235.6 253.434C235.7 253.034 235.7 249.434 235.7 249.434C234.9 248.934 234.1 248.334 233.3 247.634C232.6 248.034 231.7 248.734 232.5 249.934C232.5 249.934 233.7 251.434 232.8 251.534C231.9 251.634 229.4 251.134 229.4 251.134L213.9 242.934L213.8 242.834C213.2 244.134 212.8 244.834 212.8 244.834Z" fill="black"/>
<path d="M231.6 249.734C231.6 249.734 231.5 250.034 230.5 250.134C228.2 249.434 226.3 248.434 226.3 248.434L214.3 243.634C214.3 243.634 212.6 242.434 212.2 244.834C211.8 247.234 211.5 246.934 211.5 246.934C211.5 246.934 209.5 251.334 211.5 252.234C213.5 253.134 225.8 256.734 225.8 256.734C225.8 256.734 243.6 260.734 245.3 256.134C247 251.434 242.3 251.434 242.3 251.434C242.3 251.434 237.2 250.134 233.9 248.134C233.5 248.534 232.6 249.034 231.6 249.734Z" fill="#444053"/>
<path opacity="0.1" d="M189 92.7336C191.1 94.1336 194.2 96.4336 196.9 96.4336C197.6 96.4336 198.3 96.3336 199 96.2336C200 94.3336 201.1 92.4336 202.3 90.7336C202.3 90.7336 186.6 79.8336 190.2 86.8336C191.4 89.1336 190.2 90.2336 189 92.7336Z" fill="black"/>
<path d="M184.1 83.134C184.1 85.234 184.6 87.3339 185.7 89.2339C186.7 91.1339 188.2 92.7339 190 93.8339C190.4 94.1339 190.8 94.3339 191.3 94.5339C193.8 95.7339 196.6 96.134 199.4 95.634C202.1 95.134 204.6 93.734 206.5 91.634C208.4 89.534 209.5 86.934 209.8 84.134C210.1 81.334 209.4 78.5339 207.9 76.2339C206.4 73.8339 204.2 72.0339 201.6 71.0339C199 70.0339 196.1 69.934 193.5 70.634C190.8 71.434 188.5 73.0339 186.8 75.2339C185 77.6339 184.1 80.334 184.1 83.134Z" fill="#EFB7B9"/>
<path opacity="0.1" d="M184.1 168.334C184.1 168.334 178.5 171.434 176.4 171.434C174.3 171.434 184.1 168.334 184.1 168.334Z" fill="black"/>
<path opacity="0.1" d="M187.8 170.734C187.8 170.734 179.5 173.534 179.5 175.734C179.5 177.934 178.7 169.834 187.8 170.734Z" fill="black"/>
<path opacity="0.1" d="M207.7 158.134L207.6 158.334C207.6 158.234 207.6 158.234 207.7 158.134Z" fill="black"/>
<path opacity="0.1" d="M181.9 103.534L182.4 104.234L182.7 104.634L184.6 107.034C184.6 107.034 189.1 108.434 193.1 109.434C197.2 110.434 200.7 110.834 197.9 108.534C196.2 107.134 196.1 104.634 196.7 102.134L196.6 101.934C196.6 101.934 196.7 104.334 195.3 104.334C193.4 104.434 193.4 103.734 191.6 103.034C189.3 102.034 187 100.434 186.3 99.2344C185 100.734 183.5 102.134 181.9 103.534Z" fill="black"/>
<path opacity="0.1" d="M174.1 169.334C175.1 169.734 176.2 169.734 177.2 169.434C180.9 168.234 186.7 165.334 189.4 166.634C191.6 167.634 200.4 167.634 203.6 166.734C204.4 166.534 204.9 166.234 204.8 165.934C204.8 165.534 204.8 165.234 204.9 164.934C205.3 163.734 205.8 162.834 206.6 161.634L206.2 160.134L204.4 157.734L201.1 163.034C195.9 162.334 179.1 160.334 175.2 166.634C174.8 167.434 174.4 168.334 174.1 169.334Z" fill="black"/>
<path d="M199.6 109.134C199.5 106.034 196.6 102.534 196.6 102.534C196.6 102.534 196.7 104.934 195.3 104.934C193.4 105.034 193.4 104.334 191.6 103.634C189 102.534 186.3 100.634 186.2 99.334C186.2 99.334 179.7 102.734 175.8 112.634C173.4 123.634 173.3 127.834 173.6 129.134C174 130.434 175.1 146.434 172.7 153.534C170.2 160.634 171.7 166.634 171.7 166.634C171.7 166.634 173.1 169.934 176.8 168.734C180.5 167.534 186.3 164.634 189 165.934C191.7 167.234 202.5 167.134 204.4 166.034C205.6 164.534 206.3 162.334 206.3 162.334C206.3 162.334 205.6 158.534 204.4 152.134C204.2 151.234 204.1 150.134 203.9 148.934C203.6 146.434 203.5 144.034 203.7 141.534" fill="#575A89"/>
<path opacity="0.1" d="M189.5 147.134C191.5 150.434 194.1 153.334 197.2 155.534C199.3 155.534 201.4 155.734 203.4 155.934C203.2 155.034 203 153.934 202.9 152.734C202.6 150.234 202.5 147.834 202.7 145.334C202.4 145.134 202.1 144.934 201.8 144.634C201.6 144.334 201.4 144.034 201.3 143.634C200.7 141.634 195.4 132.034 195.4 132.034C195.4 132.034 183 128.834 182.6 132.034C182.2 135.334 186.4 141.834 189.5 147.134Z" fill="black"/>
<path d="M193.6 126.134C193.6 126.134 201.1 140.234 201.7 142.334C201.9 142.934 202.2 143.434 202.6 143.734C203.1 144.134 203.6 144.334 204.2 144.334C204.2 144.334 211.6 146.134 213.4 146.334C215.2 146.534 230.6 147.834 230.6 147.834C230.6 147.834 234.5 147.934 235 146.534C235.4 145.234 243 138.434 247.4 144.334C247.8 144.934 248.1 145.534 248.2 146.234C248.3 146.934 248.3 147.634 248.1 148.234C247.3 150.834 245.6 154.834 243.9 152.334C241.4 148.734 238.5 149.734 238.5 151.634C238.5 153.534 234.5 152.834 233.2 153.134C232.5 153.234 230 153.934 227.9 154.534C225.4 155.234 222.9 155.634 220.4 155.834C216.2 156.134 210 156.334 207.8 155.534C205.2 154.534 200.5 154.334 198.5 154.234C197.8 154.234 197.2 154.034 196.7 153.634C194 151.434 191.6 148.834 189.9 145.834C186.8 140.534 180.5 129.434 180.9 126.234C181.2 122.934 193.6 126.134 193.6 126.134Z" fill="#EFB7B9"/>
<path opacity="0.1" d="M191.1 106.534C191.1 106.534 195.1 113.134 197 117.934C198.9 122.634 201.1 131.034 201.1 131.034L189.9 129.734L189 128.234C189 128.234 181 133.234 182 135.334C183 137.434 179.9 132.134 180.1 126.034C180.3 119.934 179.2 109.134 180.1 106.534C180.9 103.834 188.4 104.434 191.1 106.534Z" fill="black"/>
<path d="M180 125.233C179.8 131.333 182.8 136.633 181.9 134.533C181 132.433 188.8 129.333 188.8 129.333L189.8 129.233L201 130.333C201 130.333 198.7 122.033 196.9 117.233C195.8 114.533 194.5 111.934 193.1 109.434C192 107.334 191.1 105.833 191.1 105.833C189.6 104.633 186.3 103.934 183.7 104.134C183.3 104.134 182.9 104.233 182.5 104.233C181.4 104.433 180.6 104.833 180.2 105.533C180.1 105.633 180.1 105.733 180.1 105.833C179.2 108.433 180.3 119.233 180 125.233Z" fill="#575A89"/>
<path opacity="0.1" d="M175 141.834C175 141.834 179.7 148.334 181.1 148.534C181.2 148.534 175.1 147.134 175 141.834Z" fill="black"/>
<path opacity="0.1" d="M175 151.034C175 151.034 183.9 160.034 186.7 160.134C189.6 160.234 175 151.034 175 151.034Z" fill="black"/>
<path opacity="0.1" d="M175 154.834C175 154.834 180.7 161.534 181.1 161.534C181.5 161.534 174.9 159.234 175 154.834Z" fill="black"/>
<path opacity="0.1" d="M180.1 105.434C181 105.334 181.9 105.034 182.7 104.534C183 104.334 183.3 104.234 183.6 104.034C184.8 103.234 185.9 102.334 186.8 101.334C188.4 99.7336 190.1 98.0336 190.7 95.8336C190.9 95.3336 191 94.8336 191 94.3336C191.4 91.6336 191.1 88.5337 193 86.7337C193.4 86.4337 193.8 86.1337 194.2 85.9337C197 84.6337 201 85.4337 203.1 83.1337C204.4 81.6337 204.4 79.5337 205.4 77.9337C205.8 77.2337 206.7 76.6337 207.4 75.9337C206.4 74.3337 205 73.0336 203.3 72.0336C201.7 71.0336 199.8 70.4337 197.9 70.2337C196 70.0337 194.1 70.2337 192.3 70.9337C190.5 71.5337 188.9 72.6337 187.5 73.9337C186.1 75.2337 185.1 76.9337 184.5 78.7337C183.9 80.5337 183.6 82.4336 183.9 84.3336C184.1 86.2336 184.7 88.0337 185.7 89.6337C186.7 91.2337 188.1 92.6337 189.7 93.6337C189.6 93.8337 189.5 94.0337 189.4 94.1337C187 99.1337 181.6 103.534 181.6 103.534L182.1 104.234C181.4 104.434 180.5 104.834 180.1 105.434Z" fill="black"/>
<path d="M190.7 94.4343C191.1 91.7343 190.8 88.6342 192.7 86.8342C193.1 86.5342 193.5 86.2343 193.9 86.0343C196.7 84.7343 200.7 85.5343 202.8 83.2343C204.1 81.7343 204.1 79.6343 205.1 78.0343C205.5 77.3343 206.4 76.7343 207.1 76.0343C206.1 74.4343 204.7 73.1343 203 72.1343C201.4 71.1343 199.5 70.5342 197.6 70.3342C195.7 70.1342 193.8 70.3343 192 71.0343C190.2 71.6343 188.6 72.7343 187.2 74.0343C185.8 75.3343 184.8 77.0342 184.2 78.8342C183.6 80.6342 183.3 82.5343 183.6 84.4343C183.8 86.3343 184.4 88.1343 185.4 89.7343C186.4 91.3343 187.8 92.7343 189.4 93.7343" fill="#2F2E41"/>
<g opacity="0.1">
<path opacity="0.1" d="M125.3 92.0344C125.5 92.3344 125.7 92.8344 125.7 93.2344C125.7 93.4344 125.6 93.5344 125.6 93.6344C124.6 91.8344 123.5 89.8344 123.3 87.7344C123.8 89.3344 124.6 90.7344 125.3 92.0344Z" fill="black"/>
<path opacity="0.1" d="M115.7 105.934C116.7 106.834 118.4 107.134 119 108.334L118 108.834C117.3 108.534 116.7 108.134 116.1 107.634C115.7 107.334 115.4 106.834 115.2 106.334C115 105.834 114.9 105.334 115 104.834C115.1 105.334 115.3 105.634 115.7 105.934Z" fill="black"/>
</g>
<path opacity="0.1" d="M238.1 199.734L241.1 198.334V197.734C241.1 197.534 238.7 198.034 236.9 198.434C238.1 198.634 238.1 199.534 238.1 199.734Z" fill="black"/>
<path d="M240.7 167.034C244.7 167.034 247.9 163.134 247.9 158.234C247.9 153.434 244.7 149.434 240.7 149.434C236.7 149.434 233.5 153.334 233.5 158.234C233.4 163.034 236.7 167.034 240.7 167.034Z" fill="#978C90"/>
<path d="M171.2 146.834L159.6 158.234L121.5 157.534L132 146.734H171.2V146.834Z" fill="#DDA2A6"/>
<path d="M171.2 185.934V146.834L159.6 158.234V196.534L171.2 185.934Z" fill="#B77B7F"/>
<path d="M121.5 157.534V196.434H159.6V158.134L121.5 157.534Z" fill="#DDA2A6"/>
<path opacity="0.3" d="M121.5 157.534V196.434H159.6V158.134L121.5 157.534Z" fill="white"/>
<path d="M156.6 168.934L128.3 164.034L124.6 182.634L153.8 188.034L156.6 168.934Z" fill="#DCE0ED"/>
<path d="M151 173.334L131.9 170.334L131.4 172.834L150.5 176.034L151 173.334Z" fill="#EB5757"/>
<path d="M145.7 178.634L134.9 177.034L134.4 179.834L145.7 181.434V178.634Z" fill="#EB5757"/>
<path d="M166.6 167.334L166.1 151.934L163.1 154.834L163.6 170.234L166.6 167.334Z" fill="#65617D"/>
<path d="M128.2 150.734L164.8 151.234L166 151.934L163 154.834L162 154.234L125.7 153.234L128.2 150.734Z" fill="#65617D"/>
<path d="M183.5 82.9342L185 60.5342L201.7 58.0342L209.1 79.0342L183.5 82.9342Z" fill="#EB5757"/>
<path d="M224.4 218.934C224.4 218.934 216.6 233.834 215.3 234.834C214.9 235.134 215.8 235.734 217.4 236.334C221 237.934 227.9 240.034 227.9 240.034L224.4 218.934Z" fill="#2F2E41"/>
<path d="M227.9 240.334C227.9 240.334 227.7 241.734 229.3 243.534C230.9 245.334 234.1 248.234 234.1 248.234C234.1 248.234 231.3 250.334 230.3 250.034C229.3 249.734 213.7 243.434 213.7 243.434L217.4 236.334L227.9 240.334Z" fill="#A2A2A3"/>
<path d="M208.9 87.6336C208.4 87.3336 207.8 87.1336 207.2 87.1336C206.9 87.1336 206.6 87.1336 206.3 87.2336C206.2 87.2336 206.2 87.2335 206.1 87.3335C206 87.3335 206 87.3336 205.9 87.4336C205.8 87.4336 205.8 87.5336 205.7 87.5336C205.6 87.5336 205.6 87.6336 205.5 87.6336C205.3 87.7336 205.1 87.9336 204.8 88.1336L204.6 88.3335C204.5 88.4335 204.5 88.4336 204.4 88.5336C204.3 88.6336 204.2 88.7335 204 88.8335L203.9 88.9336C203.9 88.9336 203.8 88.9336 203.8 89.0336C203.7 89.0336 203.7 89.1336 203.6 89.1336L203.4 89.2336H203.3H203.2C203.1 89.3336 202.9 89.3336 202.7 89.4336C202.5 89.4336 202.4 89.5336 202.2 89.5336V89.0336C202.5 89.0336 202.8 89.1336 203.1 89.2336L204 89.4336C204.6 89.5336 205.2 89.6336 205.8 89.6336C205.9 89.6336 206.1 89.6336 206.2 89.6336C206.3 89.6336 206.5 89.5336 206.6 89.5336C206.9 89.4336 207.1 89.3336 207.4 89.1336C207.7 88.9336 207.9 88.7336 208.1 88.5336C208.2 88.4336 208.2 88.4335 208.3 88.3335C208.4 88.2335 208.4 88.2336 208.5 88.1336C208.6 88.0336 208.6 88.0336 208.7 87.9336C208.8 87.8336 208.8 87.7336 208.9 87.6336ZM208.9 87.6336C208.9 87.7336 208.8 87.7335 208.8 87.8335C208.8 87.9335 208.7 87.9336 208.7 88.0336C208.7 88.1336 208.6 88.1336 208.6 88.2336C208.6 88.3336 208.5 88.3336 208.5 88.4336C208.3 88.6336 208.1 88.9336 207.9 89.1336C207.7 89.3336 207.4 89.5336 207.1 89.6336C207 89.7336 206.8 89.7336 206.6 89.7336C206.4 89.7336 206.3 89.8335 206.1 89.8335C205.8 89.8335 205.5 89.8335 205.2 89.8335C204.9 89.8335 204.6 89.7336 204.3 89.7336C204 89.7336 203.7 89.6336 203.4 89.5336C203.1 89.4336 202.8 89.4336 202.5 89.4336L201.2 89.2336L202.5 88.9336C202.6 88.9336 202.8 88.8335 202.9 88.8335C203 88.8335 203.2 88.7336 203.3 88.7336H203.4H203.5L203.7 88.6336C203.8 88.6336 203.8 88.5336 203.9 88.5336C204 88.5336 204 88.4336 204.1 88.4336C204.2 88.3336 204.3 88.2336 204.4 88.2336C204.5 88.2336 204.5 88.1336 204.6 88.1336L204.8 88.0336C204.9 87.9336 204.9 87.9335 205 87.8335L205.1 87.7336L205.2 87.6336H205.3L205.4 87.5336C205.5 87.5336 205.5 87.4336 205.6 87.4336C205.7 87.4336 205.7 87.3335 205.8 87.3335C205.9 87.3335 206 87.2336 206 87.2336C206.2 87.2336 206.3 87.1336 206.5 87.1336C206.8 87.0336 207.1 87.0336 207.5 87.1336C207.8 87.1336 208.1 87.2336 208.4 87.4336C208.4 87.3336 208.7 87.4336 208.9 87.6336Z" fill="black" stroke="black" stroke-width="0.0442941" stroke-miterlimit="10"/>
<path d="M209 87.8337C208.9 87.7337 208.9 87.7338 208.9 87.6338L209 87.8337Z" fill="black" stroke="black" stroke-width="0.0442941" stroke-miterlimit="10"/>
<path d="M208.9 87.7336L208.5 88.1336L208 88.7336L207.6 89.0336C207.6 89.0336 206.8 89.4336 206.7 89.4336L206.1 89.5336H204.9L204.3 89.3336L203.4 89.1336L202.3 89.0336L203.5 88.7336L204.5 88.0336L205.2 87.5336L205.9 87.1336L206.7 86.9336L207.7 87.0336L208.5 87.3336L208.9 87.7336Z" fill="black" stroke="black" stroke-width="0.0442941" stroke-miterlimit="10"/>
<path d="M199.2 67.334C199 66.034 198.8 64.834 198.4 63.834" stroke="white" stroke-width="1.3003" stroke-miterlimit="10"/>
<path d="M197.9 64.3336L197.7 63.9336L197.6 63.7336C197.6 63.6336 197.5 63.6336 197.5 63.5336L197.3 63.1336L197.2 62.9336L197.1 62.7336L196.9 62.3336C196.8 62.2336 196.7 62.1336 196.6 61.9336L196.5 61.7336L196.4 61.5336C196.3 61.4336 196.2 61.3336 196.1 61.2336C195.7 60.8336 195.2 60.4336 194.7 60.1336C194.2 59.8336 193.6 59.5336 193 59.4336C193.6 59.4336 194.3 59.6336 194.8 59.8336C195.4 60.0336 196 60.4336 196.5 60.7336C196.6 60.8336 196.8 60.9336 196.9 61.0336L197.1 61.2336L197.3 61.4336C197.4 61.5336 197.5 61.6336 197.7 61.7336L198 62.1336L198.2 62.3336L198.3 62.5336L198.6 62.9336C198.7 63.0336 198.7 63.0336 198.7 63.1336L198.8 63.3336L199.1 63.7336L197.9 64.3336Z" fill="white"/>
<path d="M198.5 72.634L198.1 68.734C198 68.034 198.5 67.434 199.3 67.334C200 67.234 200.6 67.734 200.7 68.534L201.1 72.434L198.5 72.634Z" stroke="white" stroke-width="1.3003" stroke-miterlimit="10"/>
</svg>
